<?xml version="1.0" encoding="UTF-8"?>
<svg xmlns="http://www.w3.org/2000/svg" xmlns:xlink="http://www.w3.org/1999/xlink" viewBox="0 0 430 160">
  <defs>
    <style>
      .cls-1 {
        fill: none;
      }

      .cls-2 {
        clip-path: url(#clippath);
      }

      .cls-3 {
        fill: #fffbf1;
      }

      .cls-4 {
        fill: #f38d1d;
      }

      .cls-5 {
        fill: #141516;
      }

      .cls-6 {
        fill: #191919;
      }

      .cls-7 {
        fill: #191c1e;
      }

      .cls-8 {
        fill: #1a1d1e;
      }

      .cls-9 {
        mix-blend-mode: multiply;
      }

      .cls-10 {
        isolation: isolate;
      }
    </style>
    <clipPath id="clippath">
      <rect class="cls-1" width="430" height="160"/>
    </clipPath>
  </defs>
  <g class="cls-10">
    <g id="Layer_1" data-name="Layer 1">
      <g class="cls-2">
        <rect class="cls-7" width="430" height="160"/>
        <g>
          <path class="cls-5" d="M91.52,171.34c2.23-9.65,10.77-15.54,19.1-18.13,8.33-2.59,17.19-2.96,25.18-6.71,12.22-5.73,21.28-19.64,22.68-34.82,1.19-12.9-2.69-26.44,1.08-38.66,3.75-12.17,14.18-19.8,24.54-24.61,10.36-4.8,21.52-7.84,30.67-15.23,9.15-7.39,15.93-20.99,12.2-33.17H54.75V171.61l36.76-.27Z"/>
          <path class="cls-8" d="M53.01,171.34c2.23-9.65,10.77-15.54,19.1-18.13,8.33-2.59,17.19-2.96,25.18-6.71,12.22-5.73,21.28-19.64,22.68-34.82,1.19-12.9-2.69-26.44,1.08-38.66,3.75-12.17,14.18-19.8,24.54-24.61,10.36-4.8,21.52-7.84,30.67-15.23,9.15-7.39,15.93-20.99,12.2-33.17H16.25V171.61l36.76-.27Z"/>
          <path class="cls-5" d="M147.63,0c-22.64,3.46-45.23,27.12-47.41,50.71-.79,8.57,.42,17.2,.57,25.81,.15,8.61-.92,17.65-5.68,24.7-6.71,9.95-18.99,13.71-30.3,16.92-11.31,3.21-23.58,7.28-29.89,17.5-4.72,7.64-5.11,17.2-7.17,26.02-2.06,8.82-7.19,18.24-15.84,19.73l-30.73-.04L-19.06,0H147.63Z"/>
        </g>
        <g>
          <path class="cls-5" d="M493.59,187.34c-2.44-10.55-11.77-16.99-20.88-19.83-9.11-2.84-18.79-3.24-27.53-7.34-13.36-6.27-23.27-21.47-24.8-38.08-1.3-14.1,2.94-28.91-1.18-42.27-4.1-13.31-15.5-21.65-26.83-26.9-11.33-5.25-23.53-8.57-33.54-16.65C348.82,28.19,341.41,13.32,345.49,0h188.3V187.64s-40.2-.3-40.2-.3Z"/>
          <path class="cls-8" d="M535.69,187.34c-2.44-10.55-11.77-16.99-20.88-19.83-9.11-2.84-18.79-3.24-27.53-7.34-13.36-6.27-23.27-21.47-24.8-38.08-1.3-14.1,2.94-28.91-1.18-42.27-4.1-13.31-15.5-21.65-26.83-26.9-11.33-5.25-23.53-8.57-33.54-16.65C390.92,28.19,383.51,13.32,387.59,0h188.3V187.64s-40.2-.3-40.2-.3Z"/>
        </g>
      </g>
      <g>
        <g>
          <rect class="cls-3" x="129.74" y="89.59" width="19.92" height="26.44"/>
          <g>
            <g>
              <g>
                <path class="cls-3" d="M60.59,85.16h19.93v7.79h-11.42v5.66h10.93v7.3h-10.93v13.59h-8.51v-34.35Z"/>
                <path class="cls-3" d="M95.9,108.71h-3.34v10.79h-8.51v-34.35h12.82c7.35,0,12.53,4.6,12.53,12.05,0,4.74-2.18,8.18-5.71,10.01l7.69,12.29h-9l-6.48-10.79Zm.14-7.26c2.66,0,4.74-.87,4.74-4.26s-2.08-4.26-4.74-4.26h-3.48v8.51h3.48Z"/>
                <path class="cls-3" d="M114.18,85.16h8.51v34.35h-8.51v-34.35Z"/>
                <path class="cls-3" d="M126.95,85.16h14.08c9,0,16.4,7.16,16.4,17.17s-7.4,17.17-16.4,17.17h-14.08v-34.35Zm13.79,26.32c5.22,0,7.79-3.82,7.79-9.14s-2.56-9.14-7.79-9.14h-5.27v18.29h5.27Z"/>
                <path class="cls-3" d="M177.69,85.16l12.97,34.35h-9.19l-1.69-4.89h-13.26l-1.69,4.89h-9.24l12.96-34.35h9.14Zm-.68,21.67l-3.92-11.22-3.87,11.22h7.79Z"/>
                <path class="cls-3" d="M197.14,106.59l-12.63-21.43h9.63l7.26,13.45,7.21-13.45h9.63l-12.63,21.43v12.92h-8.47v-12.92Z"/>
              </g>
              <g>
                <path class="cls-3" d="M201.26,40.99l-7.65,9.76,10.15-1.16,6.95-8.6h-9.44Zm-19.01,0v11.06l8.51-.97v-10.09h-8.51Zm-17.55-.49c-9.07,0-16.85,5.99-17.84,15.58l9.08-1.03c1.2-4.1,4.79-6.47,8.95-6.47,3.39,0,6.15,1.45,7.94,4.11l6.14-4.2c-3.53-6.15-9.24-7.99-14.27-7.99Zm-29.84,.49h-9.15l-6.91,18.29,9.11-1.04,2.35-6.8,2.2,6.29,8.35-.95-5.95-15.79Zm-44.16,0v21.49l8.51-.97v-20.52h-8.51Zm-9.63,15.09c1.61-.87,4.07-2.96,4.07-6.72,0-4.84-4.02-8.37-9.59-8.37h-13.25v24.73l8.51-.97v-4.41h3.92c2.88,0,4.11,1.43,4.19,3.49l8.29-.94c-.75-4-3.64-6.02-6.15-6.8Zm-7.15-2.27h-3.1v-5.42h2.91c2.08,0,3.19,.92,3.19,2.71,0,1.6-.92,2.71-3,2.71Z"/>
                <path class="cls-3" d="M85.34,68.08c0,6.24-4.31,10.35-12.05,10.35h-13.05v-10.28l8.51-.97v3.85h4.02c2.85,0,4.1-1.54,4.1-3.87,0-.31-.02-.61-.08-.89l8.21-.94c.21,.82,.34,1.74,.34,2.75Z"/>
                <polygon class="cls-3" points="97.13 70.64 109.33 70.64 109.33 78.43 88.62 78.43 88.62 64.91 97.13 63.94 97.13 70.64"/>
                <polygon class="cls-3" points="145.74 78.43 136.56 78.43 134.86 73.54 121.61 73.54 119.91 78.43 110.68 78.43 117 61.68 126.08 60.65 124.31 65.75 132.11 65.75 130.16 60.18 138.5 59.23 145.74 78.43"/>
                <path class="cls-3" d="M170.76,66.67l6.14,4.26c-3.53,6.14-9.29,7.98-14.32,7.98-9.72,0-17.89-6.86-17.89-17.66,0-.95,.06-1.87,.19-2.75l9.22-1.04c-.42,1.13-.65,2.39-.65,3.8,0,6.1,4.35,9.58,9.47,9.58,3.49,0,6.06-1.44,7.85-4.15Z"/>
                <polygon class="cls-3" points="209.69 78.43 200.35 78.43 191.12 65.75 188.69 68.75 188.69 78.43 180.18 78.43 180.18 54.48 188.69 53.51 188.69 57.48 192.1 53.12 202.27 51.96 196.1 59.6 209.69 78.43"/>
              </g>
              <polygon class="cls-3" points="203.76 49.59 221.59 47.29 202.15 48.38 203.76 49.59"/>
              <polyline class="cls-3" points="60.23 68.15 49.38 70.03 62.3 68.83"/>
            </g>
            <g class="cls-9">
              <path class="cls-6" d="M136.91,98.12v3.72l-3.06,1.35,3.06,1.31v3.71l-7.32-4.27v-1.43l7.32-4.38Z"/>
              <path class="cls-6" d="M136.47,110.06l5.23-14.39h3.98l-5.23,14.39h-3.98Z"/>
              <path class="cls-6" d="M145.24,98.12l7.31,4.38v1.43l-7.31,4.27v-3.71l3.05-1.31-3.05-1.35v-3.72Z"/>
            </g>
          </g>
        </g>
        <g>
          <g>
            <g>
              <g>
                <path class="cls-3" d="M304.25,145.78c-.26,0-.51-.04-.75-.14-.22-.09-.43-.22-.6-.39-.17-.17-.3-.38-.39-.6-.09-.24-.14-.5-.14-.76,0-.26,.05-.52,.14-.76,.09-.23,.22-.43,.39-.61,.17-.17,.37-.3,.6-.39,.24-.09,.5-.14,.75-.14,.41,0,.81,.12,1.13,.37,.32,.24,.54,.58,.62,.97h-.61c-.08-.23-.23-.44-.44-.57-.21-.14-.46-.22-.71-.21-.34,0-.67,.13-.91,.37-.48,.54-.48,1.35,0,1.88,.24,.25,.57,.38,.91,.37,.26,0,.52-.07,.73-.22,.2-.15,.36-.37,.43-.61h.61c-.08,.41-.3,.77-.62,1.03-.32,.26-.73,.41-1.15,.4Z"/>
                <path class="cls-3" d="M308.97,142.89h.45v2.83h-.49l-.05-.34c-.14,.14-.3,.24-.49,.31-.18,.07-.37,.11-.56,.11-.26,0-.52-.06-.75-.19-.22-.13-.41-.31-.53-.53-.26-.47-.26-1.05,0-1.52,.12-.22,.31-.41,.53-.53,.41-.22,.89-.25,1.33-.08,.17,.07,.33,.18,.46,.31l.11-.35Zm-1.72,2.08c.37,.39,.98,.41,1.37,.05,.39-.37,.41-.98,.05-1.37s-.98-.41-1.37-.05c-.2,.18-.31,.44-.31,.71,0,.25,.09,.49,.26,.67Z"/>
                <path class="cls-3" d="M313.41,142.83c.27,0,.54,.1,.72,.31,.19,.22,.29,.5,.28,.79v1.8h-.58v-1.66c.01-.19-.04-.37-.14-.53-.1-.12-.25-.19-.41-.18-.19,0-.37,.08-.49,.23-.14,.17-.2,.38-.19,.59v1.54h-.57v-1.66c.01-.19-.04-.37-.14-.53-.1-.12-.25-.19-.41-.18-.19,0-.37,.08-.49,.23-.13,.17-.2,.38-.19,.59v1.54h-.58v-2.83h.41l.1,.36c.11-.13,.24-.24,.39-.32,.15-.07,.32-.11,.49-.11,.17,0,.34,.05,.49,.13,.15,.09,.27,.21,.34,.36,.21-.3,.55-.49,.92-.49h.05Z"/>
                <path class="cls-3" d="M316.72,142.83c.26,0,.52,.06,.75,.19,.22,.13,.4,.31,.52,.53,.13,.23,.19,.49,.19,.76,.01,.4-.14,.78-.42,1.06-.54,.53-1.4,.57-1.99,.08v1.29h-.58v-3.84h.39l.11,.34c.13-.12,.28-.22,.44-.29,.18-.08,.38-.12,.58-.12Zm-.71,2.14c.37,.35,.95,.35,1.33,0,.35-.37,.35-.96,0-1.33-.37-.37-.96-.37-1.33,0-.37,.37-.37,.96,0,1.33h0Z"/>
                <path class="cls-3" d="M321.83,145.78c-.26,0-.51-.04-.75-.14-.22-.09-.43-.22-.6-.39-.17-.17-.3-.38-.39-.6-.1-.24-.14-.5-.14-.76,0-.26,.04-.52,.14-.76,.09-.23,.22-.43,.39-.61,.17-.17,.37-.3,.6-.39,.24-.09,.5-.14,.75-.14,.41,0,.8,.12,1.13,.37,.32,.24,.54,.58,.63,.97h-.61c-.08-.23-.23-.44-.44-.57-.51-.33-1.19-.26-1.62,.17-.49,.53-.49,1.35,0,1.88,.24,.25,.57,.38,.91,.37,.53,.02,1-.33,1.16-.84h.61c-.08,.41-.3,.77-.63,1.03-.32,.26-.73,.41-1.14,.4Z"/>
                <path class="cls-3" d="M326.26,145.6c-.48,.25-1.06,.25-1.54,0-.23-.13-.41-.31-.54-.53-.13-.23-.2-.49-.19-.76,0-.27,.06-.53,.19-.76,.13-.22,.32-.41,.54-.53,.48-.25,1.06-.25,1.54,0,.23,.12,.42,.31,.54,.53,.26,.47,.26,1.04,0,1.52-.13,.22-.32,.41-.54,.53Zm-1.46-.63c.36,.39,.98,.42,1.37,.06,.39-.36,.42-.98,.06-1.37-.36-.39-.98-.42-1.37-.06-.2,.18-.31,.44-.31,.71,0,.25,.1,.49,.28,.67h-.02Z"/>
                <path class="cls-3" d="M329.79,145.44c-.54,.45-1.33,.45-1.87,0-.24-.24-.37-.58-.35-.92v-1.63h.58v1.55c-.01,.21,.06,.42,.19,.58,.13,.14,.32,.22,.52,.21,.2,.01,.38-.07,.51-.21,.13-.16,.2-.37,.18-.58v-1.55h.58v1.63c.02,.34-.11,.67-.35,.92Z"/>
                <path class="cls-3" d="M332.28,142.88h.25v.55h-.31c-.2-.02-.4,.06-.54,.2-.13,.17-.2,.38-.18,.59v1.51h-.58v-2.83h.39l.1,.38c.21-.27,.53-.42,.87-.4Z"/>
                <path class="cls-3" d="M334.74,145.55c-.24,.17-.53,.26-.83,.24-.3,.01-.59-.08-.83-.26-.21-.17-.33-.43-.33-.7h.57c0,.14,.07,.26,.18,.34,.13,.08,.28,.12,.43,.12,.14,0,.28-.03,.4-.1,.1-.06,.16-.16,.16-.27,0-.05-.01-.1-.04-.14-.02-.04-.05-.07-.09-.1-.04-.03-.1-.06-.15-.07-.05-.02-.11-.04-.17-.05l-.2-.04-.2-.04c-.07-.01-.13-.03-.2-.05-.07-.02-.13-.04-.2-.07-.06-.03-.11-.06-.17-.1-.05-.04-.1-.09-.14-.14-.04-.06-.06-.12-.08-.19-.02-.08-.04-.17-.03-.25,0-.24,.11-.47,.3-.62,.23-.16,.51-.25,.8-.23,.28-.02,.56,.07,.79,.24,.2,.16,.31,.41,.31,.66h-.55c0-.12-.06-.23-.16-.31-.12-.08-.26-.12-.4-.11-.13,0-.27,.03-.38,.09-.09,.05-.14,.15-.14,.25,0,.04,0,.07,0,.11,.01,.03,.04,.06,.07,.08l.1,.06s.08,.04,.13,.04l.15,.03,.17,.03c.2,.03,.4,.07,.6,.15,.27,.1,.45,.36,.46,.66,0,.02,0,.05,0,.07,.01,.25-.09,.5-.29,.66Z"/>
                <path class="cls-3" d="M338.36,144.32c0,.06,0,.13,0,.19h-2.31c.03,.21,.13,.4,.29,.54,.16,.14,.37,.21,.58,.2,.16,0,.31-.03,.45-.11,.13-.07,.24-.18,.31-.31h.62c-.1,.28-.29,.53-.53,.7-.25,.17-.54,.26-.84,.25-.39,0-.76-.14-1.03-.42-.28-.28-.43-.66-.42-1.06,0-.26,.06-.53,.19-.76,.12-.22,.3-.41,.52-.53,.23-.13,.48-.19,.74-.19,.26,0,.53,.06,.75,.2,.21,.13,.38,.32,.49,.54,.13,.23,.2,.49,.2,.75Zm-1.46-.97c-.2,0-.4,.06-.55,.18-.15,.12-.26,.3-.3,.49h1.71c-.05-.19-.16-.36-.31-.49-.15-.12-.34-.18-.53-.17h-.01Z"/>
                <path class="cls-3" d="M340.75,145.55c-.24,.17-.53,.26-.83,.24-.3,.01-.59-.08-.83-.26-.21-.17-.33-.43-.33-.7h.56c0,.14,.07,.26,.18,.34,.26,.14,.57,.14,.83,0,.1-.05,.16-.16,.16-.27,0-.05-.01-.1-.04-.14-.02-.04-.05-.07-.09-.1-.04-.03-.09-.06-.15-.07-.06-.02-.11-.04-.17-.05l-.2-.04-.21-.04-.2-.05c-.07-.02-.13-.04-.2-.07-.06-.03-.11-.06-.17-.1-.05-.04-.1-.09-.14-.14-.04-.06-.07-.12-.09-.19-.02-.08-.04-.17-.03-.25,0-.24,.11-.47,.31-.62,.23-.16,.51-.25,.79-.23,.28-.02,.56,.07,.79,.24,.2,.16,.31,.41,.31,.66h-.55c0-.12-.05-.23-.15-.31-.12-.08-.26-.12-.41-.11-.13,0-.26,.03-.38,.09-.09,.05-.14,.15-.14,.25,0,.04,0,.07,0,.11,.02,.03,.04,.06,.07,.08,.03,.02,.06,.04,.09,.06,.04,.02,.09,.04,.14,.04l.14,.03,.17,.03c.2,.03,.4,.07,.59,.15,.28,.1,.48,.36,.49,.66v.07c.01,.26-.11,.52-.32,.68Z"/>
                <path class="cls-3" d="M345.09,145.6c-.24,.13-.5,.19-.77,.19-.27,0-.54-.06-.77-.19-.22-.13-.41-.31-.54-.53-.13-.23-.2-.49-.2-.76,0-.27,.07-.53,.2-.76,.13-.22,.31-.41,.54-.53,.24-.13,.5-.19,.77-.19,.27,0,.54,.06,.77,.19,.23,.12,.42,.31,.54,.53,.26,.47,.26,1.04,0,1.52-.13,.22-.32,.41-.54,.53Zm-1.46-.63c.37,.36,.95,.35,1.31-.02,.36-.37,.35-.95-.02-1.31-.36-.35-.93-.35-1.29,0-.35,.37-.35,.96,0,1.33Z"/>
                <path class="cls-3" d="M347.94,142.83c.3-.02,.59,.11,.78,.33,.2,.24,.3,.54,.29,.85v1.7h-.58v-1.58c.01-.21-.05-.42-.17-.59-.12-.14-.3-.21-.49-.2-.21,0-.41,.08-.55,.24-.15,.17-.22,.39-.21,.61v1.52h-.58v-2.83h.4l.12,.39c.11-.15,.25-.26,.42-.34,.18-.08,.37-.12,.56-.12Z"/>
                <path class="cls-3" d="M349.81,145.72v-3.84h.58v3.84h-.58Z"/>
                <path class="cls-3" d="M353.23,142.89h.62l-1.28,2.88c-.11,.28-.27,.53-.49,.75-.19,.15-.44,.23-.68,.21h-.29v-.52h.24c.14,.01,.29-.03,.41-.11,.13-.13,.22-.29,.29-.46l.07-.13-1.23-2.62h.63l.9,1.97,.82-1.97Z"/>
              </g>
              <g>
                <path class="cls-3" d="M294.15,136.75l-.52,.17,.35,.43-.34,.28-.37-.49-.36,.49-.34-.28,.35-.43-.51-.18,.15-.41,.49,.18v-.54h.44v.54l.49-.18,.19,.41Z"/>
                <path class="cls-3" d="M297.05,139.68l-.32-.8h-1.64l-.31,.8h-.64l1.46-3.67h.57l1.52,3.67h-.64Zm-1.14-2.89l-.6,1.54h1.21l-.61-1.54Z"/>
                <path class="cls-3" d="M299.71,136.78c.26,0,.52,.06,.75,.19,.22,.12,.4,.31,.52,.53,.13,.23,.19,.5,.19,.76,.01,.4-.14,.78-.42,1.06-.54,.55-1.41,.58-1.99,.08v1.28h-.58v-3.84h.39l.11,.35c.13-.13,.29-.24,.46-.31,.18-.07,.37-.11,.56-.11Zm-.71,2.15c.17,.18,.41,.27,.66,.27,.25,0,.49-.09,.66-.27,.36-.36,.36-.95,0-1.31s-.95-.36-1.31,0c-.36,.36-.36,.94,0,1.3Z"/>
                <path class="cls-3" d="M303.32,136.78c.26,0,.52,.06,.75,.19,.22,.12,.4,.31,.52,.53,.13,.23,.19,.5,.19,.76,.01,.4-.14,.78-.42,1.06-.54,.55-1.41,.58-1.99,.08v1.28h-.58v-3.84h.39l.11,.35c.13-.13,.29-.24,.46-.31,.18-.07,.37-.11,.56-.11Zm-.71,2.15c.17,.18,.41,.27,.66,.27,.25,0,.49-.09,.66-.27,.36-.36,.36-.95,0-1.31s-.95-.36-1.31,0c-.36,.36-.36,.94,0,1.3Z"/>
                <path class="cls-3" d="M305.4,139.68v-3.84h.58v3.84h-.58Z"/>
                <path class="cls-3" d="M306.8,136.41v-.6h.6v.6h-.6Zm0,3.27v-2.83h.58v2.83h-.58Z"/>
                <path class="cls-3" d="M309.49,139.75c-.26,0-.52-.06-.75-.19-.22-.12-.41-.31-.53-.53-.13-.23-.2-.49-.19-.76,0-.26,.06-.52,.19-.75,.12-.23,.31-.41,.53-.53,.23-.13,.49-.2,.76-.19,.32,0,.64,.1,.9,.3,.25,.19,.42,.47,.49,.78h-.57c-.07-.16-.19-.29-.34-.38-.15-.09-.31-.14-.49-.14-.24,0-.47,.09-.64,.26-.35,.37-.35,.95,0,1.32,.16,.18,.4,.28,.64,.27,.17,0,.34-.05,.49-.15,.15-.1,.26-.24,.33-.4h.62c-.07,.31-.24,.59-.49,.8-.27,.21-.6,.31-.94,.3Z"/>
                <path class="cls-3" d="M313.83,136.85h.45v2.83h-.49l-.05-.34c-.13,.13-.29,.24-.46,.31-.18,.07-.37,.11-.57,.11-.26,0-.52-.06-.75-.19-.22-.13-.41-.31-.53-.53-.26-.47-.26-1.04,0-1.52,.12-.22,.31-.41,.53-.53,.23-.13,.49-.2,.75-.19,.2,0,.39,.04,.57,.11,.17,.07,.33,.18,.46,.31l.09-.35Zm-1.72,2.08c.36,.36,.95,.37,1.31,0,.18-.18,.28-.42,.28-.67,.01-.5-.38-.91-.87-.92-.02,0-.03,0-.05,0-.52,0-.93,.43-.93,.95,0,.24,.1,.47,.26,.64h0Z"/>
                <path class="cls-3" d="M316.63,136.78c.39-.01,.78,.14,1.05,.42,.56,.6,.56,1.52,0,2.12-.28,.28-.66,.44-1.05,.42-.37,0-.73-.13-1-.39l-.07,.33h-.44v-3.84h.58v1.28c.26-.22,.59-.34,.93-.34Zm-.71,2.14c.17,.18,.42,.28,.67,.27,.51,0,.92-.42,.92-.94,0-.51-.42-.92-.94-.92-.24,0-.48,.1-.65,.27-.17,.18-.27,.42-.26,.67,0,.24,.09,.48,.26,.65Z"/>
                <path class="cls-3" d="M318.72,139.68v-3.84h.58v3.84h-.58Z"/>
                <path class="cls-3" d="M322.81,138.27c0,.06,0,.13,0,.19h-2.3c.05,.44,.43,.76,.86,.74,.16,0,.31-.04,.45-.11,.13-.07,.24-.18,.31-.3h.61c-.1,.28-.29,.53-.53,.7-.25,.17-.54,.26-.84,.26-.39,0-.77-.15-1.03-.43-.28-.28-.43-.66-.42-1.05,0-.26,.06-.53,.19-.76,.12-.22,.3-.41,.52-.53,.22-.13,.48-.2,.74-.19,.27,0,.53,.07,.76,.2,.21,.13,.38,.32,.49,.54,.12,.23,.19,.49,.19,.75Zm-1.46-.97c-.41-.01-.77,.28-.85,.68h1.71c-.05-.19-.15-.36-.31-.49-.15-.12-.34-.19-.54-.19h-.01Z"/>
                <path class="cls-3" d="M326.83,139.55c-.24,.13-.5,.2-.77,.19-.27,0-.54-.06-.77-.19-.23-.12-.42-.31-.54-.53-.27-.47-.27-1.05,0-1.52,.13-.22,.32-.41,.54-.53,.24-.13,.5-.2,.77-.19,.27,0,.54,.06,.77,.19,.22,.12,.41,.31,.54,.53,.27,.47,.27,1.05,0,1.52-.13,.22-.31,.41-.54,.53Zm-1.46-.62c.17,.18,.41,.27,.66,.26,.25,0,.49-.09,.66-.26,.35-.37,.35-.96,0-1.34-.17-.17-.41-.27-.66-.26-.25-.01-.49,.08-.66,.26-.35,.37-.35,.96,0,1.34Z"/>
                <path class="cls-3" d="M329.68,136.78c.3-.02,.59,.11,.78,.33,.2,.24,.31,.55,.29,.86v1.7h-.58v-1.59c.02-.21-.04-.41-.17-.58-.12-.14-.3-.21-.49-.2-.21,0-.41,.08-.54,.24-.15,.17-.22,.39-.21,.62v1.52h-.58v-2.83h.4l.12,.4c.11-.15,.25-.26,.42-.34,.18-.08,.37-.12,.56-.12Z"/>
                <path class="cls-3" d="M335.33,136.01h.59v3.67h-.49l-1.9-2.62v2.62h-.59v-3.67h.55l1.87,2.57-.02-2.57Z"/>
                <path class="cls-3" d="M338.84,139.55c-.48,.26-1.06,.26-1.54,0-.23-.12-.42-.31-.54-.53-.26-.47-.26-1.05,0-1.52,.13-.22,.32-.41,.54-.53,.48-.26,1.06-.26,1.54,0,.23,.12,.41,.31,.54,.53,.26,.47,.26,1.05,0,1.52-.13,.22-.32,.41-.54,.53Zm-1.46-.62c.37,.35,.95,.35,1.32,0,.35-.37,.35-.96,0-1.34-.37-.35-.95-.35-1.32,0-.35,.37-.35,.96,0,1.34Z"/>
                <path class="cls-3" d="M341.69,136.78c.3-.01,.6,.11,.8,.34,.2,.24,.31,.55,.29,.86v1.7h-.58v-1.59c.02-.21-.04-.41-.17-.58-.12-.14-.3-.21-.49-.2-.21,0-.41,.08-.54,.24-.14,.17-.22,.39-.21,.62v1.52h-.58v-2.83h.4l.11,.4c.11-.15,.25-.26,.42-.34,.17-.08,.36-.12,.55-.12Z"/>
                <path class="cls-3" d="M343.49,138.49v-.56h1.68v.56h-1.68Z"/>
                <path class="cls-3" d="M347.63,139.74c-.26,0-.51-.05-.75-.15-.22-.09-.43-.22-.6-.39-.17-.17-.3-.38-.39-.6-.1-.24-.15-.5-.15-.76,0-.26,.05-.52,.15-.76,.09-.23,.22-.43,.39-.61,.17-.17,.37-.3,.6-.39,.24-.1,.5-.14,.75-.14,.41,0,.81,.12,1.13,.37,.32,.25,.54,.6,.62,1h-.61c-.08-.23-.23-.43-.43-.57-.51-.33-1.19-.26-1.63,.16-.48,.54-.48,1.35,0,1.89,.44,.43,1.13,.49,1.64,.15,.21-.15,.36-.37,.43-.62h.61c-.16,.84-.91,1.44-1.77,1.42h0Z"/>
                <path class="cls-3" d="M352.35,136.85h.45v2.83h-.49l-.06-.34c-.13,.13-.29,.24-.46,.31-.43,.17-.92,.14-1.32-.09-.22-.13-.41-.31-.53-.53-.26-.47-.26-1.04,0-1.52,.12-.22,.31-.41,.53-.53,.23-.13,.49-.2,.75-.19,.2,0,.39,.04,.57,.11,.17,.07,.33,.18,.46,.31l.09-.35Zm-1.72,2.08c.18,.17,.42,.27,.67,.26,.25,0,.49-.09,.66-.26,.17-.18,.27-.42,.26-.67,.01-.5-.38-.91-.87-.92-.02,0-.03,0-.05,0-.25,0-.49,.09-.67,.26-.17,.17-.27,.41-.26,.66,0,.25,.09,.49,.26,.67Z"/>
                <path class="cls-3" d="M354.98,136.83h.25v.55h-.31c-.2-.02-.4,.06-.54,.2-.13,.17-.19,.37-.18,.58v1.51h-.58v-2.83h.4l.1,.39c.2-.27,.53-.42,.86-.4Z"/>
                <path class="cls-3" d="M358.29,138.27c0,.06,0,.13,0,.19h-2.29c.03,.21,.13,.4,.29,.54,.16,.14,.37,.21,.58,.2,.16,0,.31-.04,.45-.11,.13-.07,.24-.17,.31-.3h.62c-.1,.28-.29,.53-.53,.7-.25,.17-.54,.26-.84,.26-.39,.01-.77-.15-1.03-.43-.28-.28-.43-.66-.42-1.05,0-.26,.06-.53,.19-.76,.12-.22,.3-.41,.52-.53,.23-.13,.48-.2,.74-.19,.27,0,.53,.07,.75,.2,.21,.13,.38,.32,.49,.54,.13,.23,.19,.49,.19,.75Zm-1.46-.97c-.2,0-.4,.06-.55,.18-.15,.12-.25,.3-.3,.49h1.71c-.04-.19-.15-.36-.31-.49-.15-.12-.34-.18-.53-.18h-.01Z"/>
                <path class="cls-3" d="M361.6,138.27v.19h-2.3c.05,.44,.43,.76,.86,.74,.16,0,.31-.04,.45-.11,.13-.07,.24-.18,.31-.3h.61c-.1,.28-.29,.53-.53,.7-.25,.17-.54,.26-.84,.26-.39,.01-.77-.15-1.03-.43-.28-.28-.43-.66-.42-1.05,0-.26,.06-.53,.19-.76,.12-.22,.3-.41,.52-.53,.22-.13,.48-.2,.74-.19,.27,0,.53,.07,.76,.2,.22,.13,.39,.32,.51,.54,.11,.23,.17,.49,.17,.75Zm-1.46-.97c-.41-.01-.77,.28-.85,.68h1.71c-.05-.19-.15-.36-.31-.49-.15-.12-.34-.19-.54-.19h-.01Z"/>
                <path class="cls-3" d="M363.57,136.83h.25v.55h-.31c-.2-.01-.4,.06-.54,.2-.13,.16-.2,.37-.18,.58v1.51h-.58v-2.83h.39l.1,.39c.21-.27,.53-.42,.87-.4Z"/>
              </g>
            </g>
            <g>
              <rect class="cls-3" x="279.59" y="113.34" width="97.03" height="18.2" rx="2.03" ry="2.03"/>
              <g>
                <path class="cls-7" d="M290.22,117.76h5.52v2.12h-3.2v1.48h2.66v2.1h-2.66v1.54h3.31v2.12h-5.63v-9.36Z"/>
                <path class="cls-7" d="M296.82,117.76h2.32l3.59,5.56h.07v-5.56h2.32v9.36h-2.32l-3.59-5.56h-.07v5.56h-2.32v-9.36Z"/>
                <path class="cls-7" d="M309.49,124.18h-.91v2.94h-2.32v-9.36h3.49c2,0,3.41,1.25,3.41,3.28,0,1.29-.59,2.23-1.56,2.73l2.1,3.35h-2.45l-1.77-2.94Zm.04-1.98c.72,0,1.29-.24,1.29-1.16s-.57-1.16-1.29-1.16h-.95v2.32h.95Z"/>
                <path class="cls-7" d="M313.87,122.44c0-2.86,2.2-4.81,4.88-4.81s4.86,1.95,4.86,4.81-2.2,4.81-4.86,4.81-4.88-1.95-4.88-4.81Zm4.88,2.61c1.37,0,2.48-1.01,2.48-2.61s-1.11-2.61-2.48-2.61-2.49,1.01-2.49,2.61,1.11,2.61,2.49,2.61Z"/>
                <path class="cls-7" d="M324.64,117.76h2.32v7.24h3.32v2.12h-5.64v-9.36Z"/>
                <path class="cls-7" d="M333.8,117.76h2.32l3.59,5.56h.07v-5.56h2.32v9.36h-2.32l-3.59-5.56h-.07v5.56h-2.32v-9.36Z"/>
                <path class="cls-7" d="M343.11,122.44c0-2.86,2.2-4.81,4.88-4.81s4.86,1.95,4.86,4.81-2.2,4.81-4.86,4.81-4.88-1.95-4.88-4.81Zm4.88,2.61c1.37,0,2.48-1.01,2.48-2.61s-1.11-2.61-2.48-2.61-2.49,1.01-2.49,2.61,1.11,2.61,2.49,2.61Z"/>
                <path class="cls-7" d="M352.67,117.76h2.44l1.58,5.39,1.73-5.39h1.83l1.73,5.39,1.58-5.39h2.44l-2.97,9.36h-1.82l-1.88-5.46-1.87,5.46h-1.82l-2.97-9.36Z"/>
              </g>
            </g>
            <g>
              <path class="cls-3" d="M284.76,100.51h1.4l1.88,5.12,1.88-5.12h1.41l-2.6,6.74h-1.38l-2.59-6.74Z"/>
              <path class="cls-3" d="M290.92,104.78c0-1.71,1.22-2.56,2.37-2.56,.88,0,1.45,.48,1.58,.76h.03v-.66h1.27v4.93h-1.27v-.66h-.03c-.12,.27-.69,.76-1.58,.76-1.15,0-2.37-.85-2.37-2.56Zm2.63,1.42c.71,0,1.38-.49,1.38-1.42s-.66-1.42-1.38-1.42-1.38,.5-1.38,1.42,.66,1.42,1.38,1.42Z"/>
              <path class="cls-3" d="M297.14,100.51h1.27v6.74h-1.27v-6.74Z"/>
              <path class="cls-3" d="M299.38,100.51h1.27v1.12h-1.27v-1.12Zm0,1.8h1.27v4.93h-1.27v-4.93Z"/>
              <path class="cls-3" d="M305.36,107.25v-.66h-.03c-.12,.27-.69,.76-1.58,.76-1.15,0-2.37-.85-2.37-2.56s1.22-2.56,2.37-2.56c.88,0,1.45,.48,1.58,.76h.03v-2.47h1.27v6.74h-1.27Zm-1.35-1.04c.71,0,1.38-.49,1.38-1.42s-.66-1.42-1.38-1.42-1.38,.5-1.38,1.42,.66,1.42,1.38,1.42Z"/>
              <path class="cls-3" d="M309.31,104.78c0-1.67,1.31-2.56,2.6-2.56s2.6,.89,2.6,2.56-1.32,2.56-2.6,2.56-2.6-.89-2.6-2.56Zm2.6,1.41c.71,0,1.34-.53,1.34-1.41s-.63-1.41-1.34-1.41-1.35,.53-1.35,1.41,.64,1.41,1.35,1.41Z"/>
              <path class="cls-3" d="M315.25,102.31h1.27v.67c.28-.44,.77-.77,1.51-.77,1.02,0,1.87,.63,1.87,2.13v2.9h-1.27v-2.69c0-.72-.39-1.2-1.05-1.2s-1.05,.47-1.05,1.2v2.69h-1.27v-4.93Z"/>
              <path class="cls-3" d="M320.86,100.51h1.27v6.74h-1.27v-6.74Z"/>
              <path class="cls-3" d="M324.82,107.2l-2.05-4.89h1.3l1.37,3.43,1.36-3.43h1.31l-2.08,4.93-.77,1.8h-1.24l.81-1.85Z"/>
              <path class="cls-3" d="M332.65,100.3c.26,0,.61,.03,.88,.19v1c-.24-.11-.47-.1-.55-.1-.48,0-.72,.27-.72,.75v.18h1.27v1.02h-1.27v3.92h-1.27v-3.92h-.63v-1.02h.63v-.32c0-1.45,1.01-1.69,1.66-1.69Z"/>
              <path class="cls-3" d="M333.84,104.78c0-1.67,1.31-2.56,2.6-2.56s2.6,.89,2.6,2.56-1.32,2.56-2.6,2.56-2.6-.89-2.6-2.56Zm2.6,1.41c.71,0,1.34-.53,1.34-1.41s-.63-1.41-1.34-1.41-1.35,.53-1.35,1.41,.64,1.41,1.35,1.41Z"/>
              <path class="cls-3" d="M339.77,102.31h1.27v1.28c.17-.76,.65-1.38,1.55-1.38,.11,0,.22,0,.33,.04v1.21c-.11-.02-.21-.03-.32-.03-.96,0-1.56,.67-1.56,1.65v2.15h-1.27v-4.93Z"/>
              <path class="cls-3" d="M345.87,105.88v-2.55h-.7v-1.02h.7v-1.26h1.28v1.26h1.02v1.02h-1.02v2.34c0,.26,.14,.5,.56,.5,.11,0,.29-.02,.47-.08v.98c-.19,.17-.55,.23-.86,.23-.83,0-1.44-.41-1.44-1.42Z"/>
              <path class="cls-3" d="M348.66,104.78c0-1.67,1.31-2.56,2.6-2.56s2.6,.89,2.6,2.56-1.32,2.56-2.6,2.56-2.6-.89-2.6-2.56Zm2.6,1.41c.71,0,1.34-.53,1.34-1.41s-.63-1.41-1.34-1.41-1.35,.53-1.35,1.41,.64,1.41,1.35,1.41Z"/>
              <path class="cls-3" d="M358.33,107.25v-.66h-.03c-.12,.27-.69,.76-1.58,.76-1.15,0-2.37-.85-2.37-2.56s1.22-2.56,2.37-2.56c.88,0,1.45,.48,1.58,.76h.03v-2.47h1.27v6.74h-1.27Zm-1.35-1.04c.71,0,1.38-.49,1.38-1.42s-.66-1.42-1.38-1.42-1.38,.5-1.38,1.42,.66,1.42,1.38,1.42Z"/>
              <path class="cls-3" d="M360.33,104.78c0-1.71,1.22-2.56,2.37-2.56,.88,0,1.45,.48,1.58,.76h.03v-.66h1.27v4.93h-1.27v-.66h-.03c-.12,.27-.69,.76-1.58,.76-1.15,0-2.37-.85-2.37-2.56Zm2.63,1.42c.71,0,1.38-.49,1.38-1.42s-.66-1.42-1.38-1.42-1.38,.5-1.38,1.42,.66,1.42,1.38,1.42Z"/>
              <path class="cls-3" d="M368.17,107.2l-2.05-4.89h1.3l1.37,3.43,1.36-3.43h1.31l-2.08,4.93-.77,1.8h-1.24l.81-1.85Z"/>
            </g>
          </g>
          <g>
            <g>
              <g>
                <path class="cls-4" d="M305.04,37.68h-12.65v-5.73l12.65-18.04h6.71V31.95h3.18v5.73h-3.18v6.37h-6.71v-6.37Zm0-5.73v-9.12l-6.03,9.12h6.03Z"/>
                <path class="cls-4" d="M322.57,19.94h-5.18v-6.03h11.76v30.13h-6.58V19.94Z"/>
                <path class="cls-4" d="M338.05,13.7c2.97,0,5.26,2.29,5.26,5.22s-2.29,5.22-5.26,5.22-5.26-2.29-5.26-5.22,2.29-5.22,5.26-5.22Zm-3.48,27.25l17.44-27.16,4.92,3.1-17.4,27.16-4.97-3.1Zm3.48-20.97c.64,0,1.06-.47,1.06-1.06s-.42-1.06-1.06-1.06-1.06,.47-1.06,1.06,.42,1.06,1.06,1.06Zm16.13,13.84c2.97,0,5.26,2.29,5.26,5.22s-2.29,5.22-5.26,5.22-5.26-2.29-5.26-5.22,2.29-5.22,5.26-5.22Zm0,6.28c.64,0,1.06-.47,1.06-1.06s-.42-1.06-1.06-1.06-1.06,.47-1.06,1.06,.42,1.06,1.06,1.06Z"/>
                <path class="cls-4" d="M290.63,61.89c0-9.21,7.09-15.49,15.62-15.49s15.62,6.28,15.62,15.49-7.13,15.49-15.62,15.49-15.62-6.28-15.62-15.49Zm15.62,9.12c4.75,0,8.7-3.57,8.7-9.12s-3.95-9.12-8.7-9.12-8.7,3.56-8.7,9.12,3.95,9.12,8.7,9.12Z"/>
                <path class="cls-4" d="M324.58,46.83h17.23v6.11h-10.52v6.03h9.97v5.73h-9.97v12.27h-6.71v-30.13Z"/>
                <path class="cls-4" d="M344.31,46.83h17.23v6.11h-10.52v6.03h9.97v5.73h-9.97v12.27h-6.71v-30.13Z"/>
              </g>
              <g>
                <rect class="cls-3" x="278.8" y="16.18" width="23.67" height="10.15" rx="1.07" ry="1.07"/>
                <g>
                  <path d="M284.72,18.4h2.93v.77h-2.08v1.51h1.92v.72h-1.92v2.31h-.85v-5.31Z"/>
                  <path d="M288.36,18.4h.82v5.31h-.82v-5.31Z"/>
                  <path d="M289.82,21.77c0-1.34,.97-2.02,1.89-2.02,.71,0,1.21,.39,1.35,.7h.02v-.62h.82v3.89h-.82v-.62h-.02c-.14,.31-.64,.7-1.35,.7-.92,0-1.89-.68-1.89-2.02Zm2.04,1.27c.63,0,1.24-.43,1.24-1.27s-.61-1.27-1.24-1.27-1.23,.43-1.23,1.27,.61,1.27,1.23,1.27Z"/>
                  <path d="M295.07,22.77v-2.28h-.54v-.67h.54v-1h.83v1h.79v.67h-.79v2.13c0,.22,.12,.4,.43,.4,.09,0,.22-.02,.36-.07v.65c-.14,.12-.4,.16-.61,.16-.59,0-1.01-.29-1.01-.99Z"/>
                </g>
              </g>
            </g>
            <g>
              <path class="cls-3" d="M302.13,84.68c0-1.49,1.15-2.32,2.3-2.32s2.3,.83,2.3,2.32-1.15,2.32-2.3,2.32-2.3-.83-2.3-2.32Zm2.3,1.84c.9,0,1.78-.65,1.78-1.84s-.88-1.84-1.78-1.84-1.78,.65-1.78,1.84,.88,1.84,1.78,1.84Z"/>
              <path class="cls-3" d="M307.6,82.45h.52v.78c.22-.44,.72-.87,1.55-.87,.95,0,1.77,.59,1.77,1.92v2.63h-.52v-2.57c0-1.02-.61-1.5-1.38-1.5s-1.41,.48-1.41,1.5v2.57h-.52v-4.47Z"/>
              <path class="cls-3" d="M314.17,84.68c0-1.52,1.1-2.32,2.22-2.32,.84,0,1.53,.46,1.79,1.04h.03v-.95h.52v4.47h-.52v-.95h-.03c-.26,.58-.94,1.04-1.79,1.04-1.12,0-2.22-.8-2.22-2.32Zm2.28,1.84c.88,0,1.76-.61,1.76-1.84s-.88-1.84-1.76-1.84-1.76,.6-1.76,1.84,.88,1.84,1.76,1.84Z"/>
              <path class="cls-3" d="M319.8,80.82h.52v6.1h-.52v-6.1Z"/>
              <path class="cls-3" d="M321.41,80.82h.52v6.1h-.52v-6.1Z"/>
              <path class="cls-3" d="M324.67,84.69c0-1.5,1.15-2.33,2.29-2.33,.77,0,1.52,.38,1.91,1.1l-.41,.23c-.3-.55-.88-.85-1.48-.85-.88,0-1.79,.65-1.79,1.85s.9,1.83,1.79,1.83c.6,0,1.18-.3,1.48-.85l.41,.23c-.39,.72-1.13,1.1-1.91,1.1-1.14,0-2.29-.83-2.29-2.31Z"/>
              <path class="cls-3" d="M329.47,84.68c0-1.49,1.15-2.32,2.3-2.32s2.3,.83,2.3,2.32-1.15,2.32-2.3,2.32-2.3-.83-2.3-2.32Zm2.3,1.84c.9,0,1.78-.65,1.78-1.84s-.88-1.84-1.78-1.84-1.78,.65-1.78,1.84,.88,1.84,1.78,1.84Z"/>
              <path class="cls-3" d="M338.78,86.91h-.52v-.78c-.22,.44-.72,.87-1.55,.87-.95,0-1.77-.59-1.77-1.92v-2.63h.52v2.57c0,1.02,.61,1.5,1.38,1.5s1.41-.48,1.41-1.5v-2.57h.52v4.47Z"/>
              <path class="cls-3" d="M339.86,82.45h.52v1.04c.18-.6,.63-1.13,1.45-1.13,.1,0,.17,0,.23,.03v.49c-.07-.02-.13-.03-.22-.03-.82,0-1.46,.64-1.46,1.69v2.37h-.52v-4.47Z"/>
              <path class="cls-3" d="M342.58,85.82l.46-.13c.14,.56,.55,.86,1.07,.86,.48,0,.96-.24,.96-.8,0-.46-.31-.66-.89-.91l-.34-.14c-.74-.3-1.04-.73-1.04-1.22,0-.66,.56-1.12,1.3-1.12,.67,0,1.18,.37,1.33,.94l-.42,.14c-.15-.38-.42-.63-.89-.63-.43,0-.8,.22-.8,.67,0,.33,.21,.59,.73,.81l.3,.12c.77,.32,1.25,.62,1.25,1.34,0,.87-.75,1.25-1.49,1.25-.82,0-1.39-.45-1.53-1.18Z"/>
              <path class="cls-3" d="M346.25,84.67c0-1.49,1.09-2.31,2.21-2.31s2.28,.83,2.13,2.51h-3.84c.09,1.08,.89,1.67,1.83,1.67,.57,0,1.09-.22,1.42-.6l.27,.28c-.4,.5-1.06,.78-1.75,.78-1.19,0-2.27-.82-2.27-2.33Zm3.87-.22c-.03-1.05-.81-1.62-1.66-1.62s-1.61,.56-1.71,1.62h3.37Z"/>
              <path class="cls-3" d="M351.07,85.82l.46-.13c.14,.56,.55,.86,1.07,.86,.48,0,.96-.24,.96-.8,0-.46-.31-.66-.89-.91l-.34-.14c-.74-.3-1.04-.73-1.04-1.22,0-.66,.56-1.12,1.3-1.12,.67,0,1.18,.37,1.33,.94l-.42,.14c-.15-.38-.42-.63-.89-.63-.43,0-.8,.22-.8,.67,0,.33,.21,.59,.73,.81l.3,.12c.77,.32,1.25,.62,1.25,1.34,0,.87-.75,1.25-1.49,1.25-.82,0-1.39-.45-1.53-1.18Z"/>
            </g>
          </g>
        </g>
      </g>
    </g>
  </g>
</svg>