<?xml version="1.0" encoding="UTF-8"?>
<svg xmlns="http://www.w3.org/2000/svg" xmlns:xlink="http://www.w3.org/1999/xlink" viewBox="0 0 1442 190">
  <defs>
    <style>
      .cls-1 {
        fill: none;
      }

      .cls-2 {
        clip-path: url(#clippath);
      }

      .cls-3 {
        fill: #fffbf1;
      }

      .cls-4 {
        fill: #f38d1d;
      }

      .cls-5 {
        fill: #141516;
      }

      .cls-6 {
        fill: #191919;
      }

      .cls-7 {
        fill: #191c1e;
      }

      .cls-8 {
        fill: #1a1d1e;
      }

      .cls-9 {
        mix-blend-mode: multiply;
      }

      .cls-10 {
        isolation: isolate;
      }
    </style>
    <clipPath id="clippath">
      <rect class="cls-1" width="1442" height="190"/>
    </clipPath>
  </defs>
  <g class="cls-10">
    <g id="Layer_1" data-name="Layer 1">
      <g class="cls-2">
        <rect class="cls-7" width="1442" height="190"/>
        <g>
          <path class="cls-5" d="M252.75,391.64c5.1-22.06,24.61-35.51,43.65-41.44,19.04-5.93,39.28-6.78,57.56-15.35,27.93-13.1,48.64-44.89,51.84-79.6,2.72-29.48-6.14-60.44,2.46-88.36,8.58-27.82,32.41-45.27,56.08-56.24,23.68-10.98,49.19-17.92,70.11-34.82,20.92-16.89,36.42-47.99,27.89-75.82H168.72V392.26l84.03-.63Z"/>
          <path class="cls-8" d="M164.74,391.64c5.1-22.06,24.61-35.51,43.65-41.44,19.04-5.93,39.28-6.78,57.56-15.35,27.93-13.1,48.64-44.89,51.84-79.6,2.72-29.48-6.14-60.44,2.46-88.36,8.58-27.82,32.41-45.27,56.08-56.24,23.68-10.98,49.19-17.92,70.11-34.82,20.92-16.89,36.42-47.99,27.89-75.82H80.71V392.26l84.03-.63Z"/>
          <path class="cls-5" d="M381.02,0c-58.52,0-52.6,45.26-53.97,91.37-5.52,59.06-74.82,78.95-74.49,98.63,.33,19.68,19.28,25.24,8.41,41.36-15.33,22.75-43.4,31.33-69.26,38.68-25.85,7.35-53.89,16.63-68.33,40-10.79,17.47-11.68,39.32-16.39,59.48-4.71,20.17-16.44,41.69-36.21,45.1l-70.24-.1L0,0H381.02Z"/>
        </g>
        <g>
          <path class="cls-5" d="M1463.23,280.63c-3.66-15.81-17.64-25.45-31.28-29.7-13.65-4.25-28.15-4.85-41.25-11-20.02-9.39-34.85-32.17-37.15-57.04-1.95-21.12,4.4-43.31-1.77-63.32-6.15-19.93-23.22-32.44-40.19-40.3-16.97-7.86-35.25-12.84-50.24-24.95-14.99-12.1-26.1-34.39-19.98-54.33h282.07V281.08s-60.21-.45-60.21-.45Z"/>
          <path class="cls-8" d="M1526.29,280.63c-3.66-15.81-17.64-25.45-31.28-29.7-13.65-4.25-28.15-4.85-41.25-11-20.02-9.39-34.85-32.17-37.15-57.04-1.95-21.12,4.4-43.31-1.77-63.32-6.15-19.93-23.22-32.44-40.19-40.3-16.97-7.86-35.25-12.84-50.24-24.95C1309.43,42.23,1298.33,19.95,1304.44,0h282.07V281.08s-60.21-.45-60.21-.45Z"/>
          <path class="cls-5" d="M1371.31,0c41.93,0,37.69,32.43,38.67,65.47,3.96,42.32,53.61,56.57,53.38,70.67-.24,14.1-13.81,18.09-6.03,29.64,10.99,16.3,31.1,22.45,49.63,27.71,18.53,5.26,38.62,11.92,48.96,28.67,7.73,12.52,8.37,28.17,11.75,42.62,3.38,14.45,11.78,29.87,25.95,32.32l50.33-.07L1644.34,0h-273.02Z"/>
        </g>
      </g>
      <g>
        <g>
          <g>
            <path class="cls-4" d="M715.69,67.66h-24.34v-11.03l24.34-34.71h12.91V56.64h6.13v11.03h-6.13v12.25h-12.91v-12.25Zm0-11.03v-17.56l-11.6,17.56h11.6Z"/>
            <path class="cls-4" d="M749.42,33.52h-9.96v-11.6h22.62v57.99h-12.66V33.52Z"/>
            <path class="cls-4" d="M779.23,21.51c5.72,0,10.13,4.41,10.13,10.05s-4.41,10.05-10.13,10.05-10.13-4.41-10.13-10.05,4.41-10.05,10.13-10.05Zm-6.7,52.44l33.57-52.27,9.47,5.96-33.49,52.27-9.56-5.96Zm6.7-40.35c1.22,0,2.04-.9,2.04-2.04s-.82-2.04-2.04-2.04-2.04,.9-2.04,2.04,.82,2.04,2.04,2.04Zm31.04,26.63c5.72,0,10.13,4.41,10.13,10.05s-4.41,10.05-10.13,10.05-10.13-4.41-10.13-10.05,4.41-10.05,10.13-10.05Zm0,12.09c1.22,0,2.04-.9,2.04-2.04s-.82-2.04-2.04-2.04-2.04,.9-2.04,2.04,.82,2.04,2.04,2.04Z"/>
            <path class="cls-4" d="M687.96,114.26c0-17.72,13.64-29.81,30.06-29.81s30.06,12.09,30.06,29.81-13.72,29.81-30.06,29.81-30.06-12.09-30.06-29.81Zm30.06,17.56c9.15,0,16.74-6.86,16.74-17.56s-7.6-17.56-16.74-17.56-16.74,6.86-16.74,17.56,7.6,17.56,16.74,17.56Z"/>
            <path class="cls-4" d="M753.3,85.27h33.16v11.76h-20.26v11.6h19.19v11.03h-19.19v23.61h-12.91v-57.99Z"/>
            <path class="cls-4" d="M791.28,85.27h33.16v11.76h-20.26v11.6h19.19v11.03h-19.19v23.61h-12.91v-57.99Z"/>
          </g>
          <rect class="cls-3" x="665.18" y="26.28" width="45.56" height="19.53" rx="2.31" ry="2.31"/>
          <g>
            <path d="M676.31,30.39h5.78v1.52h-4.11v2.98h3.78v1.42h-3.78v4.56h-1.67v-10.49Z"/>
            <path d="M683.47,30.39h1.62v10.49h-1.62v-10.49Z"/>
            <path d="M686.35,37.04c0-2.64,1.91-3.99,3.72-3.99,1.4,0,2.38,.77,2.66,1.37h.04v-1.23h1.62v7.68h-1.62v-1.23h-.04c-.28,.61-1.26,1.37-2.66,1.37-1.82,0-3.72-1.34-3.72-3.99Zm4.03,2.51c1.24,0,2.44-.86,2.44-2.51s-1.2-2.51-2.44-2.51-2.42,.86-2.42,2.51,1.2,2.51,2.42,2.51Z"/>
            <path d="M696.72,39.02v-4.5h-1.06v-1.31h1.06v-1.96h1.64v1.96h1.55v1.31h-1.55v4.21c0,.44,.24,.78,.84,.78,.18,0,.43-.03,.71-.13v1.29c-.28,.24-.78,.31-1.2,.31-1.17,0-1.99-.58-1.99-1.95Z"/>
          </g>
        </g>
        <g>
          <g>
            <g>
              <path class="cls-3" d="M249.69,101.96h26.89v10.51h-15.4v7.64h14.75v9.86h-14.75v18.34h-11.49v-46.34Z"/>
              <path class="cls-3" d="M297.33,133.74h-4.5v14.55h-11.49v-46.34h17.29c9.92,0,16.91,6.2,16.91,16.25,0,6.4-2.94,11.03-7.7,13.51l10.38,16.58h-12.14l-8.75-14.55Zm.2-9.79c3.59,0,6.4-1.17,6.4-5.74s-2.81-5.74-6.4-5.74h-4.7v11.49h4.7Z"/>
              <path class="cls-3" d="M322,101.96h11.49v46.34h-11.49v-46.34Z"/>
              <path class="cls-3" d="M339.22,101.96h18.99c12.14,0,22.13,9.66,22.13,23.17s-9.99,23.17-22.13,23.17h-18.99v-46.34Zm18.6,35.51c7.05,0,10.51-5.16,10.51-12.34s-3.46-12.34-10.51-12.34h-7.11v24.67h7.11Z"/>
              <path class="cls-3" d="M407.68,101.96l17.49,46.34h-12.4l-2.28-6.59h-17.88l-2.28,6.59h-12.47l17.49-46.34h12.33Zm-.91,29.24l-5.29-15.14-5.22,15.14h10.51Z"/>
              <path class="cls-3" d="M433.92,130.87l-17.03-28.91h12.99l9.79,18.14,9.72-18.14h12.99l-17.03,28.91v17.43h-11.42v-17.43Z"/>
            </g>
            <g>
              <path class="cls-3" d="M439.48,42.37l-10.32,13.17,13.69-1.56,9.37-11.61h-12.74Zm-25.64,0v14.92l11.48-1.31v-13.61h-11.48Zm-23.68-.66c-12.24,0-22.73,8.09-24.07,21.02l12.26-1.39c1.62-5.53,6.46-8.72,12.08-8.72,4.57,0,8.3,1.96,10.71,5.55l8.28-5.67c-4.76-8.3-12.46-10.78-19.25-10.78Zm-40.26,.66h-12.34l-9.32,24.68,12.28-1.41,3.17-9.18,2.97,8.49,11.26-1.28-8.03-21.3Zm-59.58,0v29l11.48-1.31v-27.69h-11.48Zm-12.99,20.36c2.17-1.17,5.49-3.99,5.49-9.07,0-6.53-5.42-11.29-12.93-11.29h-17.87v33.36l11.48-1.31v-5.95h5.29c3.89,0,5.55,1.93,5.66,4.71l11.18-1.27c-1.01-5.4-4.91-8.12-8.3-9.18Zm-9.65-3.06h-4.18v-7.32h3.92c2.8,0,4.31,1.24,4.31,3.66,0,2.15-1.24,3.66-4.04,3.66Z"/>
              <path class="cls-3" d="M283.07,78.91c0,8.42-5.81,13.97-16.26,13.97h-17.61v-13.87l11.48-1.31v5.19h5.42c3.85,0,5.54-2.08,5.54-5.22,0-.41-.03-.83-.11-1.2l11.08-1.27c.29,1.1,.46,2.35,.46,3.71Z"/>
              <polygon class="cls-3" points="298.99 82.38 315.44 82.38 315.44 92.88 287.51 92.88 287.51 74.65 298.99 73.34 298.99 82.38"/>
              <polygon class="cls-3" points="364.58 92.88 352.18 92.88 349.89 86.28 332.02 86.28 329.73 92.88 317.26 92.88 325.79 70.28 338.05 68.89 335.66 75.78 346.18 75.78 343.56 68.26 354.81 66.97 364.58 92.88"/>
              <path class="cls-3" d="M398.32,77.02l8.28,5.74c-4.76,8.28-12.53,10.77-19.32,10.77-13.11,0-24.14-9.26-24.14-23.82,0-1.28,.08-2.53,.26-3.71l12.44-1.41c-.57,1.52-.88,3.23-.88,5.12,0,8.23,5.87,12.92,12.78,12.92,4.71,0,8.17-1.95,10.59-5.6Z"/>
              <polygon class="cls-3" points="450.86 92.88 438.25 92.88 425.79 75.78 422.52 79.82 422.52 92.88 411.04 92.88 411.04 60.57 422.52 59.26 422.52 64.61 427.12 58.73 440.84 57.17 432.51 67.48 450.86 92.88"/>
            </g>
            <polygon class="cls-3" points="442.85 53.97 466.91 50.87 440.69 52.35 442.85 53.97"/>
            <polyline class="cls-3" points="249.2 79.01 234.56 81.55 252 79.93"/>
          </g>
          <rect class="cls-3" x="347.26" y="110.37" width="21.19" height="28.12"/>
          <g class="cls-9">
            <path class="cls-6" d="M353.1,118.28v4.92l-4.05,1.78,4.05,1.73v4.92l-9.7-5.66v-1.89l9.7-5.8Z"/>
            <path class="cls-6" d="M352.51,134.09l6.92-19.05h5.27l-6.92,19.05h-5.27Z"/>
            <path class="cls-6" d="M364.13,118.28l9.69,5.8v1.89l-9.69,5.66v-4.92l4.04-1.73-4.04-1.78v-4.92Z"/>
          </g>
        </g>
      </g>
      <g>
        <path class="cls-3" d="M701.35,163.82c0-3.13,2.45-4.8,4.87-4.8s4.87,1.67,4.87,4.8-2.47,4.8-4.87,4.8-4.87-1.67-4.87-4.8Zm4.87,2.65c1.33,0,2.51-1,2.51-2.65s-1.17-2.65-2.51-2.65-2.52,1-2.52,2.65,1.19,2.65,2.52,2.65Z"/>
        <path class="cls-3" d="M712.46,159.19h2.38v1.26c.51-.82,1.44-1.44,2.83-1.44,1.9,0,3.5,1.17,3.5,3.98v5.44h-2.38v-5.05c0-1.35-.73-2.24-1.97-2.24s-1.97,.89-1.97,2.24v5.05h-2.38v-9.24Z"/>
        <path class="cls-3" d="M726.2,163.82c0-3.2,2.29-4.8,4.44-4.8,1.65,0,2.72,.91,2.95,1.42h.05v-1.25h2.38v9.24h-2.38v-1.24h-.05c-.23,.52-1.3,1.42-2.95,1.42-2.15,0-4.44-1.6-4.44-4.8Zm4.92,2.67c1.33,0,2.58-.92,2.58-2.67s-1.24-2.67-2.58-2.67-2.58,.94-2.58,2.67,1.24,2.67,2.58,2.67Z"/>
        <path class="cls-3" d="M737.84,155.82h2.38v12.62h-2.38v-12.62Z"/>
        <path class="cls-3" d="M742.04,155.82h2.38v12.62h-2.38v-12.62Z"/>
        <path class="cls-3" d="M749.45,163.82c0-3.13,2.44-4.8,4.87-4.8,1.64,0,3.09,.76,3.98,2.28l-1.74,1.12c-.48-.73-1.26-1.24-2.22-1.24-1.33,0-2.54,1-2.54,2.65s1.21,2.65,2.54,2.65c.96,0,1.74-.51,2.22-1.24l1.74,1.12c-.89,1.49-2.35,2.28-3.98,2.28-2.44,0-4.87-1.67-4.87-4.8Z"/>
        <path class="cls-3" d="M759.01,163.82c0-3.13,2.45-4.8,4.87-4.8s4.87,1.67,4.87,4.8-2.47,4.8-4.87,4.8-4.87-1.67-4.87-4.8Zm4.87,2.65c1.33,0,2.51-1,2.51-2.65s-1.17-2.65-2.51-2.65-2.52,1-2.52,2.65,1.19,2.65,2.52,2.65Z"/>
        <path class="cls-3" d="M778.83,168.44h-2.38v-1.26c-.52,.82-1.44,1.44-2.83,1.44-1.9,0-3.5-1.17-3.5-3.98v-5.44h2.38v5.05c0,1.35,.73,2.24,1.97,2.24s1.97-.89,1.97-2.24v-5.05h2.38v9.24Z"/>
        <path class="cls-3" d="M780.64,159.19h2.38v2.4c.32-1.42,1.23-2.58,2.9-2.58,.21,0,.41,.02,.62,.07v2.28c-.21-.04-.39-.05-.6-.05-1.8,0-2.92,1.24-2.92,3.09v4.04h-2.38v-9.24Z"/>
        <path class="cls-3" d="M787.18,166.02l1.9-.52c.18,.6,.62,1.23,1.53,1.23,.6,0,1.19-.3,1.19-.96,0-.45-.28-.76-1.01-1.03l-1.14-.43c-1.53-.55-2.17-1.53-2.17-2.65,0-1.65,1.46-2.65,3.2-2.65s2.9,.94,3.2,2.36l-1.87,.48c-.25-.75-.73-.98-1.23-.98-.62,0-1,.36-1,.8,0,.39,.23,.73,.96,.98l1.03,.39c1.14,.41,2.38,1.08,2.38,2.72,0,1.85-1.58,2.84-3.52,2.84-1.83,0-3.18-.89-3.47-2.6Z"/>
        <path class="cls-3" d="M795.07,163.82c0-3.11,2.31-4.8,4.68-4.8s5.01,1.65,4.5,5.72h-6.92c.34,1.26,1.44,1.92,2.83,1.92,.91,0,1.71-.25,2.38-.84l1.08,1.16c-.76,.96-2.1,1.64-3.73,1.64-2.54,0-4.82-1.72-4.82-4.8Zm7.06-.82c-.14-1.32-1.24-1.97-2.36-1.97s-2.17,.64-2.47,1.97h4.83Z"/>
        <path class="cls-3" d="M804.87,166.02l1.9-.52c.18,.6,.62,1.23,1.53,1.23,.6,0,1.19-.3,1.19-.96,0-.45-.28-.76-1.01-1.03l-1.14-.43c-1.53-.55-2.17-1.53-2.17-2.65,0-1.65,1.46-2.65,3.2-2.65s2.9,.94,3.2,2.36l-1.87,.48c-.25-.75-.73-.98-1.23-.98-.62,0-1,.36-1,.8,0,.39,.23,.73,.96,.98l1.03,.39c1.14,.41,2.38,1.08,2.38,2.72,0,1.85-1.58,2.84-3.52,2.84-1.83,0-3.18-.89-3.47-2.6Z"/>
      </g>
      <g>
        <g>
          <g>
            <path class="cls-3" d="M1048.04,144.04c-.57,0-1.13-.1-1.66-.31-.49-.2-.94-.49-1.32-.87-.37-.38-.67-.83-.87-1.33-.21-.53-.31-1.1-.31-1.67,0-.57,.1-1.14,.31-1.67,.2-.5,.49-.95,.87-1.34,.38-.37,.82-.67,1.32-.87,.53-.21,1.09-.31,1.66-.31,.9-.02,1.78,.27,2.49,.82,.7,.53,1.18,1.29,1.37,2.14h-1.34c-.17-.51-.51-.96-.96-1.26-.46-.31-1.01-.47-1.56-.46-.76-.02-1.49,.28-2.01,.82-1.06,1.18-1.06,2.97,0,4.15,.53,.54,1.25,.84,2.01,.82,.57,.01,1.14-.16,1.6-.49,.45-.34,.78-.81,.95-1.35h1.34c-.17,.89-.66,1.7-1.37,2.27-.71,.58-1.61,.9-2.52,.89Z"/>
            <path class="cls-3" d="M1058.44,137.66h.98v6.23h-1.07l-.12-.76c-.31,.3-.67,.53-1.07,.67-.39,.16-.82,.24-1.24,.24-.58,0-1.15-.14-1.66-.42-.49-.28-.89-.69-1.17-1.18-.57-1.04-.57-2.31,0-3.35,.27-.49,.68-.89,1.17-1.17,.9-.48,1.97-.55,2.92-.18,.38,.16,.72,.39,1.01,.68l.25-.77Zm-3.8,4.58c.81,.86,2.16,.91,3.02,.1,.86-.81,.91-2.16,.1-3.02s-2.16-.91-3.02-.1c-.43,.4-.68,.97-.68,1.56-.02,.55,.19,1.08,.58,1.47Z"/>
            <path class="cls-3" d="M1068.21,137.53c.6-.02,1.19,.23,1.59,.67,.42,.48,.64,1.1,.61,1.73v3.96h-1.28v-3.65c.03-.41-.08-.82-.31-1.17-.22-.27-.55-.43-.9-.41-.42-.01-.82,.18-1.07,.51-.3,.37-.45,.83-.43,1.31v3.4h-1.25v-3.65c.03-.41-.08-.82-.31-1.17-.22-.27-.55-.43-.9-.41-.42,0-.82,.18-1.07,.51-.29,.37-.44,.83-.42,1.31v3.4h-1.28v-6.23h.91l.22,.8c.23-.29,.52-.53,.86-.7,.33-.16,.7-.25,1.07-.25,.38,0,.74,.1,1.07,.29,.32,.19,.59,.47,.76,.8,.45-.67,1.21-1.07,2.02-1.07l.11-.02Z"/>
            <path class="cls-3" d="M1075.51,137.52c.58,0,1.14,.14,1.65,.42,.49,.28,.89,.68,1.16,1.18,.28,.51,.43,1.09,.42,1.67,.03,.87-.31,1.72-.92,2.34-1.2,1.17-3.09,1.25-4.38,.17v2.84h-1.28v-8.46h.87l.24,.76c.28-.27,.61-.49,.97-.64,.4-.18,.84-.27,1.28-.27Zm-1.57,4.72c.82,.77,2.1,.77,2.92,0,.77-.82,.77-2.11,0-2.93-.81-.81-2.11-.81-2.92,0-.81,.81-.81,2.11,0,2.92h0Z"/>
            <path class="cls-3" d="M1086.76,144.04c-.57,0-1.13-.1-1.66-.31-.49-.2-.94-.49-1.32-.87-.37-.38-.67-.83-.87-1.33-.21-.53-.32-1.1-.31-1.67,0-.57,.1-1.14,.31-1.67,.2-.5,.49-.95,.87-1.34,.38-.37,.82-.67,1.32-.87,.53-.21,1.09-.31,1.66-.31,.9-.02,1.77,.27,2.48,.82,.7,.53,1.18,1.29,1.38,2.14h-1.34c-.17-.51-.51-.96-.96-1.26-1.13-.73-2.61-.58-3.57,.36-1.07,1.18-1.07,2.97,0,4.15,.52,.55,1.25,.85,2.01,.82,1.17,.03,2.21-.72,2.55-1.84h1.35c-.18,.89-.67,1.69-1.38,2.27-.71,.58-1.6,.9-2.51,.89Z"/>
            <path class="cls-3" d="M1096.51,143.63c-1.07,.56-2.34,.56-3.4,0-.5-.28-.91-.69-1.2-1.18-.29-.51-.44-1.08-.43-1.67,0-.59,.14-1.17,.43-1.68,.29-.49,.7-.89,1.2-1.17,1.07-.56,2.34-.56,3.4,0,.5,.27,.92,.68,1.2,1.18,.57,1.04,.57,2.3,0,3.34-.28,.5-.7,.9-1.2,1.18Zm-3.21-1.38c.8,.87,2.16,.92,3.02,.12,.87-.8,.92-2.16,.12-3.02-.8-.87-2.15-.92-3.02-.12-.44,.4-.68,.97-.69,1.56,0,.55,.22,1.09,.62,1.47h-.05Z"/>
            <path class="cls-3" d="M1104.29,143.29c-1.19,1-2.93,1-4.12,0-.53-.54-.81-1.27-.77-2.02v-3.59h1.27v3.41c-.03,.47,.12,.92,.42,1.28,.3,.31,.71,.48,1.14,.46,.43,.02,.85-.15,1.13-.47,.29-.36,.44-.81,.41-1.27v-3.41h1.28v3.59c.04,.75-.24,1.49-.77,2.02Z"/>
            <path class="cls-3" d="M1109.78,137.64h.55v1.22h-.67c-.44-.03-.88,.13-1.19,.44-.29,.37-.43,.83-.4,1.29v3.32h-1.28v-6.23h.87l.21,.85c.45-.59,1.17-.93,1.91-.89Z"/>
            <path class="cls-3" d="M1115.19,143.52c-.53,.38-1.18,.57-1.83,.53-.66,.03-1.31-.17-1.83-.58-.46-.38-.72-.95-.72-1.55h1.25c0,.3,.15,.58,.4,.75,.28,.18,.61,.27,.94,.26,.31,.01,.61-.06,.88-.21,.21-.12,.34-.35,.34-.6,0-.11-.03-.21-.09-.3-.05-.09-.11-.16-.19-.21-.1-.07-.21-.12-.33-.15-.12-.05-.25-.08-.37-.11l-.45-.09-.45-.09c-.15-.03-.29-.06-.44-.11-.15-.04-.3-.09-.44-.16-.13-.06-.25-.14-.36-.22-.12-.09-.22-.19-.31-.31-.08-.13-.14-.27-.18-.42-.05-.18-.08-.37-.07-.56-.01-.53,.23-1.04,.66-1.36,.51-.36,1.13-.54,1.75-.51,.62-.03,1.24,.16,1.73,.53,.44,.36,.69,.89,.67,1.45h-1.21c0-.27-.13-.52-.34-.67-.26-.17-.57-.25-.89-.24-.3-.01-.59,.06-.85,.2-.19,.12-.31,.33-.31,.56-.02,.08-.02,.16,0,.24,.03,.08,.08,.14,.15,.18l.21,.13c.09,.05,.19,.08,.29,.1l.32,.07,.36,.06c.45,.06,.89,.16,1.32,.32,.6,.23,1,.8,1.01,1.44,0,.05,0,.1,0,.15,.03,.56-.2,1.1-.63,1.45Z"/>
            <path class="cls-3" d="M1123.18,140.81c0,.14,0,.28,0,.42h-5.09c.06,.46,.28,.88,.63,1.19,.36,.3,.82,.46,1.28,.44,.34,0,.68-.07,.98-.24,.29-.16,.52-.39,.68-.67h1.36c-.22,.63-.63,1.17-1.18,1.55-.55,.37-1.19,.57-1.85,.56-.86,.02-1.68-.32-2.28-.93-.61-.62-.94-1.46-.92-2.33,0-.58,.14-1.16,.42-1.67,.27-.49,.66-.89,1.14-1.18,.5-.28,1.06-.42,1.64-.42,.58-.01,1.16,.14,1.66,.44,.46,.29,.83,.7,1.07,1.19,.29,.51,.44,1.08,.45,1.66Zm-3.21-2.14c-.44-.02-.87,.12-1.22,.4-.33,.27-.56,.65-.65,1.07h3.77c-.1-.42-.34-.8-.68-1.07-.34-.26-.75-.39-1.18-.39h-.03Z"/>
            <path class="cls-3" d="M1128.44,143.52c-.53,.38-1.18,.57-1.83,.53-.66,.03-1.31-.17-1.83-.58-.46-.38-.73-.95-.72-1.55h1.24c0,.3,.15,.57,.4,.75,.57,.31,1.25,.31,1.82,0,.22-.12,.36-.35,.35-.6,0-.11-.03-.21-.09-.3-.05-.09-.12-.16-.2-.21-.1-.07-.21-.12-.32-.15-.12-.05-.25-.08-.37-.11l-.45-.09-.46-.09-.44-.11c-.15-.04-.3-.1-.44-.16-.13-.07-.25-.14-.36-.22-.12-.08-.22-.19-.3-.31-.08-.13-.15-.27-.19-.42-.05-.18-.08-.37-.07-.56,0-.54,.24-1.04,.67-1.36,.51-.36,1.12-.54,1.74-.51,.62-.04,1.24,.15,1.73,.53,.44,.36,.69,.89,.67,1.45h-1.21c0-.26-.12-.51-.33-.67-.27-.17-.58-.26-.9-.24-.29-.01-.58,.06-.83,.2-.19,.12-.31,.33-.31,.56-.02,.08-.02,.16,0,.24,.03,.07,.09,.14,.16,.18,.06,.05,.13,.09,.2,.13,.09,.05,.19,.09,.3,.1l.31,.07,.37,.06c.45,.06,.88,.16,1.31,.32,.62,.21,1.05,.79,1.07,1.44v.15c.03,.58-.23,1.14-.7,1.5Z"/>
            <path class="cls-3" d="M1137.98,143.63c-.52,.28-1.11,.43-1.7,.42-.59,0-1.18-.14-1.7-.42-.5-.28-.91-.68-1.19-1.18-.3-.51-.45-1.08-.44-1.67,0-.59,.15-1.17,.44-1.68,.28-.49,.69-.89,1.19-1.17,.52-.28,1.11-.42,1.7-.42,.59,0,1.18,.13,1.7,.42,.5,.27,.92,.68,1.2,1.18,.57,1.04,.57,2.3,0,3.34-.28,.5-.7,.9-1.2,1.18Zm-3.21-1.38c.81,.79,2.1,.77,2.89-.04,.79-.81,.77-2.1-.04-2.89-.79-.77-2.05-.77-2.85,0-.77,.82-.77,2.11,0,2.93Z"/>
            <path class="cls-3" d="M1144.27,137.53c.66-.03,1.29,.23,1.72,.73,.44,.52,.67,1.2,.64,1.88v3.76h-1.27v-3.49c.03-.46-.1-.92-.36-1.29-.27-.3-.66-.46-1.07-.44-.46,0-.9,.19-1.21,.53-.32,.37-.49,.86-.47,1.35v3.34h-1.27v-6.23h.89l.26,.87c.24-.32,.56-.58,.92-.75,.39-.18,.81-.26,1.23-.26Z"/>
            <path class="cls-3" d="M1148.38,143.9v-8.46h1.27v8.46h-1.27Z"/>
            <path class="cls-3" d="M1155.93,137.67h1.36l-2.82,6.34c-.24,.62-.6,1.18-1.07,1.65-.43,.33-.96,.5-1.5,.47h-.64v-1.16h.53c.32,.03,.63-.06,.9-.24,.28-.29,.49-.63,.63-1.01l.15-.29-2.72-5.78h1.39l1.98,4.34,1.81-4.34Z"/>
          </g>
          <g>
            <path class="cls-3" d="M1025.78,124.13l-1.14,.39,.77,.95-.75,.62-.81-1.07-.8,1.07-.76-.62,.78-.94-1.13-.4,.32-.91,1.07,.4v-1.19h.97v1.19l1.07-.4,.42,.91Z"/>
            <path class="cls-3" d="M1032.17,130.59l-.7-1.75h-3.61l-.68,1.75h-1.4l3.21-8.08h1.25l3.34,8.08h-1.41Zm-2.5-6.35l-1.33,3.4h2.67l-1.35-3.4Z"/>
            <path class="cls-3" d="M1038.03,124.2c.58-.01,1.15,.14,1.66,.43,.48,.27,.88,.68,1.14,1.17,.28,.51,.43,1.09,.42,1.68,.02,.87-.31,1.71-.92,2.33-1.18,1.2-3.1,1.28-4.38,.18v2.82h-1.27v-8.46h.86l.25,.77c.29-.29,.63-.52,1.01-.67,.39-.16,.82-.25,1.24-.25Zm-1.56,4.73c.38,.39,.91,.6,1.46,.59,.55,.02,1.07-.2,1.45-.59,.79-.8,.78-2.1-.02-2.89s-2.1-.78-2.89,.02c-.78,.8-.78,2.07,0,2.87Z"/>
            <path class="cls-3" d="M1045.98,124.2c.58-.01,1.15,.14,1.66,.43,.48,.27,.88,.68,1.14,1.17,.28,.51,.43,1.09,.42,1.68,.02,.87-.31,1.71-.92,2.33-1.18,1.2-3.1,1.28-4.38,.18v2.82h-1.27v-8.46h.86l.25,.77c.29-.29,.63-.52,1.01-.67,.39-.16,.82-.25,1.24-.25Zm-1.56,4.73c.38,.39,.91,.6,1.45,.59,.55,.02,1.07-.2,1.45-.59,.79-.8,.78-2.1-.02-2.89-.8-.79-2.1-.78-2.89,.02-.78,.8-.78,2.07,0,2.87Z"/>
            <path class="cls-3" d="M1050.58,130.59v-8.46h1.27v8.46h-1.27Z"/>
            <path class="cls-3" d="M1053.65,123.39v-1.32h1.33v1.32h-1.33Zm0,7.2v-6.24h1.28v6.24h-1.28Z"/>
            <path class="cls-3" d="M1059.58,130.74c-.58,.01-1.15-.14-1.66-.43-.49-.28-.9-.68-1.18-1.18-.29-.51-.44-1.08-.43-1.67-.01-.58,.14-1.15,.43-1.66,.27-.5,.68-.91,1.18-1.18,.51-.29,1.08-.44,1.67-.43,.72-.02,1.41,.21,1.98,.65,.55,.43,.93,1.04,1.07,1.72h-1.26c-.16-.35-.42-.64-.74-.85-.32-.2-.69-.3-1.07-.3-.53-.01-1.04,.2-1.4,.58-.76,.82-.76,2.09,0,2.91,.36,.39,.87,.61,1.4,.6,.38,0,.75-.11,1.07-.32,.32-.21,.58-.52,.73-.88h1.36c-.15,.69-.53,1.31-1.07,1.75-.59,.46-1.33,.69-2.08,.66Z"/>
            <path class="cls-3" d="M1069.15,124.35h.98v6.23h-1.07l-.12-.75c-.29,.29-.63,.52-1.01,.67-.4,.16-.82,.24-1.25,.24-.58,.01-1.15-.14-1.66-.43-.49-.28-.9-.68-1.17-1.18-.57-1.04-.57-2.3,0-3.34,.27-.49,.68-.89,1.17-1.17,.5-.29,1.08-.44,1.66-.43,.43,0,.86,.08,1.26,.25,.38,.15,.72,.39,1.01,.68l.19-.78Zm-3.8,4.58c.79,.8,2.09,.81,2.89,.02,.4-.39,.62-.93,.61-1.49,.03-1.09-.83-2-1.92-2.03-.04,0-.07,0-.11,0-1.14,.01-2.06,.94-2.04,2.08,0,.53,.21,1.03,.58,1.41h0Z"/>
            <path class="cls-3" d="M1075.31,124.2c.87-.03,1.71,.31,2.32,.93,1.22,1.32,1.22,3.36,0,4.68-.61,.62-1.45,.96-2.32,.93-.82,.02-1.62-.29-2.2-.87l-.16,.72h-.97v-8.46h1.28v2.82c.57-.49,1.3-.76,2.05-.75Zm-1.56,4.72c.38,.39,.92,.61,1.47,.59,1.13-.01,2.03-.94,2.02-2.06-.01-1.13-.94-2.03-2.06-2.02-.54,0-1.05,.22-1.43,.6-.38,.39-.59,.92-.58,1.47-.01,.54,.2,1.06,.58,1.43Z"/>
            <path class="cls-3" d="M1079.91,130.59v-8.46h1.28v8.46h-1.28Z"/>
            <path class="cls-3" d="M1088.93,127.49c0,.14,0,.28,0,.42h-5.06c.1,.96,.94,1.68,1.9,1.64,.35,0,.69-.08,.99-.25,.28-.16,.52-.39,.68-.66h1.35c-.22,.62-.64,1.16-1.18,1.54-.54,.38-1.19,.58-1.85,.57-.86,.02-1.69-.32-2.28-.94-.61-.62-.94-1.46-.92-2.32,0-.58,.13-1.16,.42-1.67,.27-.49,.67-.9,1.16-1.18,.49-.29,1.06-.44,1.63-.43,.59,0,1.17,.15,1.67,.45,.46,.29,.83,.7,1.07,1.19,.27,.51,.41,1.07,.42,1.65Zm-3.21-2.14c-.91-.03-1.7,.61-1.87,1.51h3.77c-.1-.42-.34-.8-.67-1.07-.33-.28-.75-.43-1.19-.43h-.03Z"/>
            <path class="cls-3" d="M1097.77,130.3c-.52,.29-1.11,.44-1.7,.43-.59,.01-1.18-.14-1.7-.43-.5-.27-.91-.67-1.2-1.17-.59-1.04-.59-2.31,0-3.35,.28-.49,.7-.9,1.2-1.17,.52-.29,1.11-.44,1.7-.43,.59,0,1.18,.14,1.7,.43,.49,.27,.9,.68,1.19,1.17,.59,1.04,.59,2.31,0,3.35-.28,.49-.69,.89-1.19,1.17Zm-3.21-1.37c.38,.39,.91,.6,1.45,.58,.54,.02,1.07-.19,1.45-.58,.78-.83,.78-2.12,0-2.94-.39-.38-.91-.59-1.45-.57-.54-.02-1.07,.18-1.45,.57-.78,.83-.78,2.12,0,2.94Z"/>
            <path class="cls-3" d="M1104.05,124.22c.66-.03,1.29,.23,1.72,.73,.44,.53,.67,1.2,.64,1.89v3.76h-1.27v-3.5c.03-.46-.09-.91-.36-1.28-.27-.31-.66-.47-1.07-.44-.46-.01-.9,.18-1.2,.52-.32,.38-.49,.86-.47,1.36v3.34h-1.28v-6.24h.89l.26,.88c.24-.32,.56-.58,.92-.75,.39-.18,.81-.27,1.23-.27Z"/>
            <path class="cls-3" d="M1116.5,122.51h1.29v8.08h-1.07l-4.19-5.77v5.77h-1.31v-8.08h1.21l4.11,5.67-.04-5.67Z"/>
            <path class="cls-3" d="M1124.22,130.3c-1.06,.57-2.34,.57-3.4,0-.5-.27-.91-.67-1.2-1.17-.57-1.04-.57-2.31,0-3.35,.28-.49,.7-.9,1.2-1.17,1.06-.57,2.34-.57,3.4,0,.5,.27,.91,.68,1.2,1.17,.57,1.04,.57,2.31,0,3.35-.29,.49-.7,.89-1.2,1.17Zm-3.21-1.37c.82,.76,2.09,.76,2.91,0,.78-.83,.78-2.12,0-2.94-.82-.76-2.09-.76-2.91,0-.78,.83-.78,2.12,0,2.94Z"/>
            <path class="cls-3" d="M1130.51,124.22c.67-.03,1.31,.24,1.75,.74,.44,.53,.67,1.2,.64,1.89v3.76h-1.28v-3.51c.03-.46-.09-.91-.36-1.28-.27-.31-.66-.47-1.07-.44-.46-.01-.9,.18-1.2,.52-.32,.38-.49,.86-.47,1.36v3.34h-1.27v-6.24h.89l.25,.88c.24-.32,.56-.58,.92-.75,.38-.17,.79-.27,1.21-.27Z"/>
            <path class="cls-3" d="M1134.46,127.98v-1.24h3.7v1.24h-3.7Z"/>
            <path class="cls-3" d="M1143.57,130.73c-.57,0-1.13-.1-1.66-.32-.49-.19-.94-.48-1.32-.86-.37-.38-.66-.83-.86-1.33-.22-.53-.32-1.1-.32-1.67,0-.57,.1-1.14,.32-1.67,.19-.5,.48-.95,.86-1.34,.38-.37,.82-.67,1.32-.87,.53-.21,1.09-.32,1.66-.31,.9-.02,1.78,.27,2.49,.81,.7,.55,1.19,1.32,1.37,2.19h-1.34c-.17-.51-.51-.95-.95-1.26-1.13-.73-2.62-.58-3.58,.35-1.05,1.19-1.05,2.97,0,4.16,.98,.95,2.48,1.08,3.62,.33,.46-.34,.79-.81,.95-1.36h1.35c-.36,1.86-2.01,3.18-3.9,3.12h0Z"/>
            <path class="cls-3" d="M1153.97,124.35h.98v6.23h-1.07l-.13-.75c-.29,.29-.63,.52-1.01,.67-.95,.37-2.02,.3-2.91-.19-.49-.28-.9-.68-1.17-1.18-.57-1.04-.57-2.3,0-3.34,.27-.49,.68-.89,1.17-1.17,.5-.29,1.08-.44,1.66-.43,.43,0,.86,.08,1.26,.25,.38,.16,.73,.39,1.02,.68l.19-.78Zm-3.8,4.58c.39,.38,.92,.59,1.47,.58,.54,.02,1.07-.19,1.45-.58,.38-.39,.59-.92,.58-1.47,.03-1.09-.83-2-1.92-2.03-.04,0-.07,0-.11,0-.55-.01-1.08,.19-1.47,.58-.38,.38-.59,.91-.58,1.45-.01,.55,.19,1.08,.58,1.47Z"/>
            <path class="cls-3" d="M1159.77,124.32h.56v1.21h-.67c-.45-.03-.88,.13-1.2,.45-.29,.36-.43,.82-.4,1.28v3.33h-1.28v-6.24h.88l.21,.86c.45-.59,1.16-.93,1.9-.89Z"/>
            <path class="cls-3" d="M1167.07,127.49c0,.14,0,.28,0,.42h-5.05c.06,.46,.28,.89,.63,1.2,.36,.3,.81,.45,1.27,.44,.34,0,.68-.08,.98-.25,.29-.15,.52-.38,.68-.66h1.36c-.22,.62-.64,1.16-1.18,1.54-.54,.38-1.19,.58-1.85,.57-.86,.02-1.69-.32-2.28-.94-.61-.62-.94-1.46-.92-2.32,0-.58,.13-1.16,.42-1.67,.27-.49,.66-.9,1.14-1.18,.5-.29,1.06-.43,1.64-.43,.58-.01,1.16,.15,1.66,.45,.46,.29,.83,.7,1.07,1.19,.28,.51,.42,1.07,.42,1.65Zm-3.21-2.14c-.44,0-.87,.13-1.22,.41-.33,.27-.56,.65-.65,1.07h3.77c-.1-.42-.34-.8-.68-1.07-.34-.26-.75-.4-1.18-.4h-.03Z"/>
            <path class="cls-3" d="M1174.34,127.49v.42h-5.06c.1,.96,.94,1.68,1.9,1.64,.35,0,.69-.08,.99-.25,.28-.16,.52-.39,.68-.66h1.35c-.22,.62-.64,1.16-1.18,1.54-.54,.38-1.19,.58-1.85,.57-.86,.02-1.69-.32-2.28-.94-.61-.62-.94-1.46-.92-2.32,0-.58,.13-1.16,.42-1.67,.27-.49,.67-.9,1.16-1.18,.49-.29,1.06-.44,1.63-.43,.59,0,1.17,.15,1.67,.45,.48,.28,.87,.7,1.12,1.19,.25,.51,.38,1.08,.36,1.65Zm-3.21-2.14c-.91-.03-1.7,.61-1.87,1.51h3.77c-.1-.42-.34-.8-.67-1.07-.34-.27-.75-.42-1.19-.43h-.03Z"/>
            <path class="cls-3" d="M1178.7,124.32h.55v1.21h-.67c-.44-.03-.88,.13-1.19,.45-.29,.36-.43,.82-.4,1.28v3.33h-1.28v-6.24h.87l.21,.86c.45-.59,1.17-.93,1.91-.89Z"/>
          </g>
        </g>
        <g>
          <rect class="cls-3" x="993.74" y="72.58" width="213.7" height="40.08" rx="4.46" ry="4.46"/>
          <g>
            <path class="cls-7" d="M1017.13,82.32h12.16v4.67h-7.05v3.25h5.86v4.62h-5.86v3.4h7.29v4.67h-12.39v-20.61Z"/>
            <path class="cls-7" d="M1031.67,82.32h5.11l7.9,12.25h.14v-12.25h5.11v20.61h-5.11l-7.9-12.25h-.14v12.25h-5.11v-20.61Z"/>
            <path class="cls-7" d="M1059.57,96.45h-2v6.47h-5.11v-20.61h7.69c4.41,0,7.52,2.76,7.52,7.23,0,2.84-1.31,4.91-3.43,6.01l4.62,7.37h-5.4l-3.89-6.47Zm.09-4.35c1.6,0,2.84-.52,2.84-2.55s-1.25-2.55-2.84-2.55h-2.09v5.11h2.09Z"/>
            <path class="cls-7" d="M1069.24,92.62c0-6.3,4.85-10.6,10.74-10.6s10.71,4.3,10.71,10.6-4.85,10.6-10.71,10.6-10.74-4.3-10.74-10.6Zm10.74,5.75c3.02,0,5.46-2.24,5.46-5.75s-2.44-5.75-5.46-5.75-5.49,2.24-5.49,5.75,2.44,5.75,5.49,5.75Z"/>
            <path class="cls-7" d="M1092.95,82.32h5.11v15.94h7.31v4.67h-12.42v-20.61Z"/>
            <path class="cls-7" d="M1113.13,82.32h5.11l7.9,12.25h.14v-12.25h5.11v20.61h-5.11l-7.9-12.25h-.14v12.25h-5.11v-20.61Z"/>
            <path class="cls-7" d="M1133.62,92.62c0-6.3,4.85-10.6,10.74-10.6s10.71,4.3,10.71,10.6-4.85,10.6-10.71,10.6-10.74-4.3-10.74-10.6Zm10.74,5.75c3.02,0,5.46-2.24,5.46-5.75s-2.44-5.75-5.46-5.75-5.49,2.24-5.49,5.75,2.44,5.75,5.49,5.75Z"/>
            <path class="cls-7" d="M1154.7,82.32h5.37l3.48,11.87,3.8-11.87h4.04l3.8,11.87,3.48-11.87h5.37l-6.53,20.61h-4.01l-4.15-12.02-4.12,12.02h-4.01l-6.53-20.61Z"/>
          </g>
        </g>
        <g>
          <path class="cls-3" d="M1005.12,44.32h3.09l4.14,11.27,4.14-11.27h3.09l-5.73,14.84h-3.03l-5.71-14.84Z"/>
          <path class="cls-3" d="M1018.69,53.73c0-3.76,2.7-5.64,5.23-5.64,1.94,0,3.2,1.06,3.47,1.67h.06v-1.46h2.8v10.87h-2.8v-1.46h-.06c-.27,.61-1.53,1.67-3.47,1.67-2.53,0-5.23-1.88-5.23-5.64Zm5.79,3.14c1.57,0,3.03-1.09,3.03-3.14s-1.46-3.13-3.03-3.13-3.03,1.11-3.03,3.13,1.46,3.14,3.03,3.14Z"/>
          <path class="cls-3" d="M1032.38,44.32h2.8v14.84h-2.8v-14.84Z"/>
          <path class="cls-3" d="M1037.31,44.32h2.8v2.47h-2.8v-2.47Zm0,3.97h2.8v10.87h-2.8v-10.87Z"/>
          <path class="cls-3" d="M1050.48,59.16v-1.46h-.06c-.27,.61-1.53,1.67-3.47,1.67-2.53,0-5.23-1.88-5.23-5.64s2.7-5.64,5.23-5.64c1.94,0,3.2,1.06,3.47,1.67h.06v-5.44h2.8v14.84h-2.8Zm-2.97-2.3c1.57,0,3.03-1.09,3.03-3.14s-1.46-3.13-3.03-3.13-3.03,1.11-3.03,3.13,1.46,3.14,3.03,3.14Z"/>
          <path class="cls-3" d="M1059.19,53.73c0-3.68,2.88-5.64,5.73-5.64s5.73,1.96,5.73,5.64-2.91,5.64-5.73,5.64-5.73-1.96-5.73-5.64Zm5.73,3.12c1.57,0,2.95-1.17,2.95-3.12s-1.38-3.11-2.95-3.11-2.97,1.17-2.97,3.11,1.4,3.12,2.97,3.12Z"/>
          <path class="cls-3" d="M1072.26,48.29h2.8v1.48c.61-.96,1.69-1.69,3.32-1.69,2.24,0,4.12,1.38,4.12,4.68v6.4h-2.8v-5.94c0-1.59-.86-2.63-2.32-2.63s-2.32,1.04-2.32,2.63v5.94h-2.8v-10.87Z"/>
          <path class="cls-3" d="M1084.63,44.32h2.8v14.84h-2.8v-14.84Z"/>
          <path class="cls-3" d="M1093.35,59.06l-4.51-10.77h2.86l3.01,7.54,2.99-7.54h2.88l-4.58,10.87-1.69,3.97h-2.74l1.78-4.08Z"/>
          <path class="cls-3" d="M1110.59,43.86c.56,0,1.34,.06,1.94,.42v2.19c-.52-.25-1.02-.23-1.21-.23-1.07,0-1.59,.58-1.59,1.65v.4h2.8v2.24h-2.8v8.63h-2.8v-8.63h-1.38v-2.24h1.38v-.71c0-3.2,2.22-3.72,3.66-3.72Z"/>
          <path class="cls-3" d="M1113.2,53.73c0-3.68,2.88-5.64,5.73-5.64s5.73,1.96,5.73,5.64-2.91,5.64-5.73,5.64-5.73-1.96-5.73-5.64Zm5.73,3.12c1.57,0,2.95-1.17,2.95-3.12s-1.38-3.11-2.95-3.11-2.97,1.17-2.97,3.11,1.4,3.12,2.97,3.12Z"/>
          <path class="cls-3" d="M1126.26,48.29h2.8v2.82c.38-1.67,1.44-3.03,3.41-3.03,.25,0,.48,.02,.73,.08v2.68c-.25-.04-.46-.06-.71-.06-2.11,0-3.43,1.46-3.43,3.64v4.74h-2.8v-10.87Z"/>
          <path class="cls-3" d="M1139.7,56.15v-5.62h-1.55v-2.24h1.55v-2.78h2.82v2.78h2.24v2.24h-2.24v5.16c0,.56,.31,1.11,1.23,1.11,.25,0,.63-.04,1.02-.17v2.15c-.42,.38-1.21,.5-1.9,.5-1.84,0-3.18-.9-3.18-3.13Z"/>
          <path class="cls-3" d="M1145.85,53.73c0-3.68,2.88-5.64,5.73-5.64s5.73,1.96,5.73,5.64-2.91,5.64-5.73,5.64-5.73-1.96-5.73-5.64Zm5.73,3.12c1.57,0,2.95-1.17,2.95-3.12s-1.38-3.11-2.95-3.11-2.97,1.17-2.97,3.11,1.4,3.12,2.97,3.12Z"/>
          <path class="cls-3" d="M1167.15,59.16v-1.46h-.06c-.27,.61-1.53,1.67-3.47,1.67-2.53,0-5.23-1.88-5.23-5.64s2.7-5.64,5.23-5.64c1.94,0,3.2,1.06,3.47,1.67h.06v-5.44h2.8v14.84h-2.8Zm-2.97-2.3c1.57,0,3.03-1.09,3.03-3.14s-1.46-3.13-3.03-3.13-3.03,1.11-3.03,3.13,1.46,3.14,3.03,3.14Z"/>
          <path class="cls-3" d="M1171.56,53.73c0-3.76,2.7-5.64,5.23-5.64,1.94,0,3.2,1.06,3.47,1.67h.06v-1.46h2.8v10.87h-2.8v-1.46h-.06c-.27,.61-1.53,1.67-3.47,1.67-2.53,0-5.23-1.88-5.23-5.64Zm5.79,3.14c1.57,0,3.03-1.09,3.03-3.14s-1.46-3.13-3.03-3.13-3.03,1.11-3.03,3.13,1.46,3.14,3.03,3.14Z"/>
          <path class="cls-3" d="M1188.82,59.06l-4.51-10.77h2.86l3.01,7.54,2.99-7.54h2.88l-4.58,10.87-1.69,3.97h-2.74l1.78-4.08Z"/>
        </g>
      </g>
    </g>
  </g>
</svg>