<?xml version="1.0" encoding="UTF-8"?>
<svg xmlns="http://www.w3.org/2000/svg" viewBox="0 0 443 445">
  <defs>
    <style>
      .cls-1 {
        fill: #fff;
      }

      .cls-2 {
        fill: #fffbf1;
      }

      .cls-3 {
        fill: #f38d1d;
      }

      .cls-4 {
        fill: #191919;
      }

      .cls-5 {
        fill: #191c1e;
      }

      .cls-6 {
        mix-blend-mode: multiply;
      }

      .cls-7 {
        opacity: .15;
      }

      .cls-8 {
        isolation: isolate;
      }
    </style>
  </defs>
  <g class="cls-8">
    <g id="Layer_1" data-name="Layer 1">
      <g>
        <g>
          <rect class="cls-2" x="211.01" y="107.68" width="36.4" height="48.3"/>
          <g>
            <g>
              <g>
                <path class="cls-2" d="M84.68,99.58h36.41v14.23h-20.86v10.34h19.97v13.34h-19.97v24.83h-15.55v-62.75Z"/>
                <path class="cls-2" d="M149.19,142.62h-6.1v19.71h-15.55v-62.75h23.42c13.43,0,22.89,8.4,22.89,22.01,0,8.66-3.98,14.94-10.43,18.29l14.05,22.45h-16.44l-11.84-19.71Zm.26-13.26c4.86,0,8.66-1.59,8.66-7.78s-3.8-7.78-8.66-7.78h-6.36v15.55h6.36Z"/>
                <path class="cls-2" d="M182.59,99.58h15.55v62.75h-15.55v-62.75Z"/>
                <path class="cls-2" d="M205.91,99.58h25.72c16.44,0,29.96,13.08,29.96,31.37s-13.52,31.37-29.96,31.37h-25.72v-62.75Zm25.19,48.08c9.54,0,14.23-6.98,14.23-16.7s-4.69-16.7-14.23-16.7h-9.63v33.41h9.63Z"/>
                <path class="cls-2" d="M298.61,99.58l23.69,62.75h-16.79l-3.09-8.93h-24.22l-3.09,8.93h-16.88l23.68-62.75h16.7Zm-1.24,39.59l-7.16-20.5-7.07,20.5h14.23Z"/>
                <path class="cls-2" d="M334.13,138.74l-23.07-39.15h17.59l13.26,24.57,13.17-24.57h17.59l-23.07,39.15v23.6h-15.47v-23.6Z"/>
              </g>
              <g>
                <path class="cls-2" d="M341.66,18.9l-13.98,17.83,18.54-2.11,12.69-15.72h-17.25Zm-34.72,0v20.2l15.55-1.78V18.9h-15.55Zm-32.07-.9c-16.58,0-30.78,10.95-32.59,28.46l16.6-1.89c2.19-7.49,8.75-11.81,16.35-11.81,6.19,0,11.23,2.65,14.5,7.51l11.21-7.68c-6.45-11.23-16.88-14.6-26.07-14.6Zm-54.52,.9h-16.71l-12.62,33.42,16.63-1.91,4.3-12.43,4.02,11.49,15.25-1.74-10.88-28.84Zm-80.68,0V58.16l15.55-1.78V18.9h-15.55Zm-17.59,27.57c2.93-1.59,7.44-5.4,7.44-12.28,0-8.84-7.34-15.29-17.51-15.29h-24.2v45.17l15.55-1.78v-8.05h7.16c5.27,0,7.51,2.62,7.66,6.37l15.14-1.72c-1.36-7.31-6.65-10.99-11.23-12.43Zm-13.06-4.15h-5.66v-9.91h5.31c3.79,0,5.83,1.68,5.83,4.95,0,2.92-1.68,4.95-5.48,4.95Z"/>
                <path class="cls-2" d="M129.88,68.38c0,11.4-7.87,18.91-22.02,18.91h-23.85v-18.78l15.55-1.78v7.03h7.34c5.21,0,7.49-2.82,7.49-7.06,0-.56-.04-1.12-.15-1.63l15.01-1.72c.39,1.5,.62,3.18,.62,5.03Z"/>
                <polygon class="cls-2" points="151.43 73.07 173.71 73.07 173.71 87.29 135.88 87.29 135.88 62.61 151.43 60.83 151.43 73.07"/>
                <polygon class="cls-2" points="240.24 87.29 223.46 87.29 220.36 78.36 196.16 78.36 193.05 87.29 176.18 87.29 187.73 56.7 204.32 54.81 201.09 64.14 215.33 64.14 211.78 53.95 227.01 52.21 240.24 87.29"/>
                <path class="cls-2" d="M285.94,65.82l11.21,7.77c-6.45,11.21-16.97,14.58-26.16,14.58-17.75,0-32.69-12.54-32.69-32.26,0-1.74,.11-3.42,.36-5.03l16.84-1.91c-.77,2.06-1.2,4.37-1.2,6.93,0,11.14,7.94,17.49,17.31,17.49,6.37,0,11.06-2.64,14.33-7.59Z"/>
                <polygon class="cls-2" points="357.07 87.29 340.01 87.29 323.13 64.14 318.7 69.61 318.7 87.29 303.15 87.29 303.15 43.54 318.7 41.77 318.7 49.02 324.92 41.06 343.5 38.95 332.23 52.91 357.07 87.29"/>
              </g>
              <polygon class="cls-2" points="346.22 34.61 378.8 30.41 343.3 32.41 346.22 34.61"/>
              <polyline class="cls-2" points="84.02 68.51 64.2 71.96 87.81 69.75"/>
            </g>
            <g class="cls-6">
              <path class="cls-4" d="M224.11,123.27v6.79l-5.59,2.46,5.59,2.38v6.79l-13.38-7.8v-2.61l13.38-8Z"/>
              <path class="cls-4" d="M223.29,145.08l9.55-26.28h7.27l-9.55,26.28h-7.27Z"/>
              <path class="cls-4" d="M239.33,123.27l13.36,8v2.61l-13.36,7.8v-6.79l5.57-2.38-5.57-2.46v-6.79Z"/>
            </g>
          </g>
        </g>
        <g>
          <g>
            <g>
              <g>
                <g>
                  <path class="cls-2" d="M183.54,418.79c-.42,0-.83-.07-1.22-.23-.36-.15-.69-.36-.97-.64-.27-.28-.49-.61-.64-.97-.15-.39-.23-.81-.23-1.23,0-.42,.08-.84,.23-1.23,.15-.37,.36-.7,.64-.98,.28-.27,.61-.49,.97-.64,.39-.15,.8-.23,1.22-.23,.66-.01,1.31,.2,1.83,.61,.51,.39,.87,.95,1.01,1.57h-.98c-.13-.38-.38-.7-.71-.93-.34-.23-.74-.35-1.15-.34-.56-.01-1.09,.21-1.48,.61-.78,.87-.78,2.18,0,3.05,.39,.4,.92,.62,1.48,.61,.42,.01,.84-.12,1.18-.36,.33-.25,.58-.6,.7-.99h.98c-.13,.66-.48,1.25-1.01,1.67-.52,.43-1.18,.66-1.86,.65Z"/>
                  <path class="cls-2" d="M191.18,414.1h.72v4.58h-.79l-.09-.56c-.22,.22-.49,.39-.79,.5-.29,.12-.6,.18-.91,.17-.43,0-.85-.1-1.22-.31-.36-.2-.66-.5-.86-.86-.42-.77-.42-1.69,0-2.46,.2-.36,.5-.66,.86-.86,.66-.36,1.45-.4,2.15-.13,.28,.12,.53,.29,.74,.5l.18-.57Zm-2.79,3.36c.59,.63,1.59,.67,2.22,.07,.63-.59,.67-1.59,.07-2.22s-1.59-.67-2.22-.07c-.32,.3-.5,.71-.5,1.15-.01,.4,.14,.79,.42,1.08Z"/>
                  <path class="cls-2" d="M198.35,414.01c.44-.02,.87,.17,1.17,.5,.31,.35,.47,.81,.45,1.27v2.91h-.94v-2.68c.02-.3-.06-.6-.23-.86-.16-.2-.4-.31-.66-.3-.31-.01-.6,.13-.79,.38-.22,.27-.33,.61-.31,.96v2.5h-.92v-2.68c.02-.3-.06-.6-.23-.86-.16-.2-.4-.31-.66-.3-.31,0-.6,.13-.79,.38-.21,.27-.32,.61-.31,.96v2.5h-.94v-4.58h.67l.17,.59c.17-.21,.38-.39,.63-.51,.24-.12,.51-.18,.79-.18,.28,0,.55,.07,.79,.21,.24,.14,.43,.35,.56,.59,.33-.49,.89-.79,1.49-.79l.08-.02Z"/>
                  <path class="cls-2" d="M203.72,414c.42,0,.84,.1,1.21,.31,.36,.2,.65,.5,.85,.86,.21,.37,.31,.8,.31,1.23,.02,.64-.23,1.26-.68,1.72-.88,.86-2.27,.92-3.22,.13v2.08h-.94v-6.22h.64l.17,.56c.21-.2,.45-.36,.72-.47,.3-.13,.62-.2,.94-.2Zm-1.16,3.47c.6,.56,1.54,.56,2.15,0,.57-.61,.57-1.55,0-2.15-.59-.59-1.55-.59-2.15,0-.59,.59-.59,1.55,0,2.15h0Z"/>
                  <path class="cls-2" d="M211.99,418.79c-.42,0-.83-.07-1.22-.23-.36-.15-.69-.36-.97-.64-.27-.28-.49-.61-.64-.97-.16-.39-.23-.81-.23-1.23,0-.42,.07-.84,.23-1.23,.15-.37,.36-.7,.64-.98,.28-.27,.61-.49,.97-.64,.39-.15,.8-.23,1.22-.23,.66-.01,1.3,.2,1.82,.61,.51,.39,.87,.95,1.01,1.57h-.98c-.13-.38-.38-.7-.71-.93-.83-.54-1.92-.42-2.63,.27-.79,.86-.79,2.19,0,3.05,.38,.4,.92,.62,1.48,.61,.86,.03,1.63-.53,1.87-1.35h.99c-.13,.66-.49,1.25-1.01,1.67-.52,.43-1.17,.66-1.85,.65Z"/>
                  <path class="cls-2" d="M219.15,418.49c-.78,.41-1.72,.41-2.5,0-.37-.2-.67-.5-.88-.86-.21-.37-.32-.8-.31-1.23,0-.43,.1-.86,.31-1.23,.21-.36,.51-.66,.88-.86,.78-.41,1.72-.41,2.5,0,.37,.2,.67,.5,.88,.86,.42,.76,.42,1.69,0,2.45-.21,.36-.51,.66-.88,.86Zm-2.36-1.01c.59,.64,1.58,.68,2.22,.09,.64-.59,.68-1.58,.09-2.22-.59-.64-1.58-.68-2.22-.09-.32,.3-.5,.71-.51,1.14,0,.41,.16,.8,.46,1.08h-.04Z"/>
                  <path class="cls-2" d="M224.87,418.24c-.88,.73-2.15,.73-3.03,0-.39-.39-.59-.93-.57-1.49v-2.64h.94v2.51c-.02,.34,.09,.68,.31,.94,.22,.23,.52,.35,.84,.34,.32,.02,.62-.11,.83-.35,.21-.26,.32-.6,.3-.94v-2.51h.94v2.64c.03,.55-.18,1.09-.57,1.49Z"/>
                  <path class="cls-2" d="M228.9,414.09h.4v.9h-.5c-.32-.03-.64,.09-.87,.32-.21,.27-.32,.61-.29,.95v2.44h-.94v-4.58h.64l.16,.62c.33-.44,.86-.68,1.41-.65Z"/>
                  <path class="cls-2" d="M232.87,418.4c-.39,.28-.86,.42-1.34,.39-.48,.02-.96-.13-1.34-.42-.34-.28-.53-.7-.53-1.14h.92c0,.22,.11,.42,.29,.55,.21,.13,.45,.2,.69,.19,.23,0,.45-.05,.64-.16,.16-.09,.25-.26,.25-.44,0-.08-.02-.16-.06-.22-.03-.06-.08-.12-.14-.16-.07-.05-.16-.09-.24-.11-.09-.03-.18-.06-.28-.08l-.33-.06-.33-.06c-.11-.02-.22-.05-.32-.08-.11-.03-.22-.07-.32-.12-.09-.05-.18-.1-.27-.17-.09-.06-.16-.14-.23-.23-.06-.09-.11-.2-.13-.31-.04-.13-.06-.27-.06-.41-.01-.39,.17-.77,.49-1,.38-.27,.83-.4,1.29-.38,.46-.02,.91,.11,1.27,.39,.32,.26,.5,.66,.5,1.07h-.89c0-.2-.09-.38-.25-.5-.19-.13-.42-.19-.65-.17-.22,0-.43,.04-.62,.15-.14,.09-.23,.24-.23,.41-.01,.06-.01,.12,0,.17,.02,.06,.06,.1,.11,.13l.16,.09c.07,.04,.14,.06,.21,.07l.24,.06,.27,.05c.33,.04,.65,.12,.97,.24,.44,.17,.73,.59,.74,1.06,0,.04,0,.07,0,.11,.02,.41-.15,.81-.46,1.07Z"/>
                  <path class="cls-2" d="M238.75,416.42c0,.1,0,.2,0,.31h-3.74c.04,.34,.21,.65,.46,.87,.26,.22,.6,.34,.94,.32,.25,0,.5-.05,.72-.17,.21-.11,.39-.29,.5-.5h1c-.16,.46-.47,.86-.86,1.14-.4,.27-.88,.42-1.36,.41-.63,.02-1.24-.23-1.67-.68-.45-.46-.69-1.07-.68-1.71,0-.43,.1-.85,.31-1.23,.2-.36,.49-.66,.84-.86,.37-.21,.78-.31,1.2-.31,.43-.01,.85,.1,1.22,.32,.34,.21,.61,.51,.79,.87,.21,.37,.33,.79,.33,1.22Zm-2.36-1.57c-.32-.01-.64,.09-.9,.29-.24,.2-.41,.48-.48,.79h2.77c-.07-.31-.25-.59-.5-.79-.25-.19-.55-.29-.86-.28h-.02Z"/>
                  <path class="cls-2" d="M242.61,418.4c-.39,.28-.86,.42-1.34,.39-.48,.02-.96-.13-1.34-.42-.34-.28-.53-.7-.53-1.14h.91c0,.22,.11,.42,.29,.55,.42,.23,.92,.23,1.34,0,.16-.09,.26-.26,.26-.44,0-.08-.02-.15-.06-.22-.03-.06-.09-.12-.15-.16-.07-.05-.15-.09-.24-.11-.09-.03-.18-.06-.28-.08l-.33-.06-.34-.06-.32-.08c-.11-.03-.22-.07-.32-.12-.09-.05-.18-.1-.27-.17-.09-.06-.16-.14-.22-.23-.06-.1-.11-.2-.14-.31-.04-.13-.06-.27-.06-.41,0-.39,.18-.77,.5-1,.37-.27,.82-.4,1.28-.38,.46-.03,.91,.11,1.27,.39,.32,.26,.5,.66,.5,1.07h-.89c0-.19-.09-.38-.24-.5-.2-.13-.43-.19-.66-.17-.21,0-.43,.04-.61,.15-.14,.09-.23,.24-.23,.41-.01,.06-.01,.12,0,.17,.03,.05,.07,.1,.12,.13,.05,.04,.1,.07,.15,.09,.07,.04,.14,.06,.22,.07l.23,.06,.28,.05c.33,.04,.65,.12,.96,.24,.46,.15,.77,.58,.79,1.06v.11c.02,.43-.17,.84-.51,1.1Z"/>
                  <path class="cls-2" d="M249.63,418.49c-.38,.21-.81,.31-1.25,.31-.44,0-.87-.1-1.25-.31-.36-.2-.67-.5-.87-.86-.22-.37-.33-.8-.32-1.23,0-.43,.11-.86,.32-1.23,.21-.36,.51-.66,.87-.86,.38-.21,.81-.31,1.25-.31,.44,0,.87,.1,1.25,.31,.37,.2,.67,.5,.88,.86,.42,.76,.42,1.69,0,2.45-.21,.36-.51,.66-.88,.86Zm-2.36-1.01c.59,.58,1.55,.56,2.12-.03,.58-.59,.56-1.55-.03-2.12-.58-.57-1.51-.57-2.09,0-.57,.61-.57,1.55,0,2.15Z"/>
                  <path class="cls-2" d="M254.25,414.01c.48-.03,.95,.17,1.27,.53,.33,.39,.49,.88,.47,1.38v2.76h-.94v-2.56c.02-.34-.07-.67-.27-.95-.2-.22-.49-.34-.79-.32-.34,0-.66,.14-.89,.39-.24,.28-.36,.63-.35,.99v2.45h-.94v-4.58h.65l.19,.64c.18-.24,.41-.43,.68-.55,.28-.13,.59-.19,.9-.19Z"/>
                  <path class="cls-2" d="M257.27,418.69v-6.22h.94v6.22h-.94Z"/>
                  <path class="cls-2" d="M262.81,414.11h1l-2.08,4.66c-.18,.45-.44,.87-.79,1.21-.31,.24-.7,.36-1.1,.35h-.47v-.85h.39c.23,.02,.47-.04,.66-.17,.2-.21,.36-.46,.46-.74l.11-.21-2-4.25h1.02l1.45,3.19,1.33-3.19Z"/>
                </g>
                <g>
                  <path class="cls-2" d="M167.18,404.16l-.84,.28,.57,.7-.55,.46-.6-.79-.59,.79-.56-.46,.57-.69-.83-.29,.24-.67,.79,.29v-.87h.72v.87l.79-.29,.31,.67Z"/>
                  <path class="cls-2" d="M171.87,408.91l-.51-1.29h-2.65l-.5,1.29h-1.03l2.36-5.94h.92l2.45,5.94h-1.04Zm-1.84-4.67l-.97,2.5h1.97l-.99-2.5Z"/>
                  <path class="cls-2" d="M176.18,404.21c.43,0,.85,.1,1.22,.31,.36,.2,.65,.5,.84,.86,.21,.38,.31,.8,.31,1.23,.02,.64-.23,1.26-.68,1.71-.87,.88-2.27,.94-3.22,.13v2.08h-.94v-6.22h.63l.18,.57c.21-.21,.46-.38,.74-.5,.29-.12,.6-.18,.91-.18Zm-1.15,3.47c.28,.28,.67,.44,1.07,.43,.4,.01,.79-.14,1.07-.43,.58-.59,.58-1.54-.01-2.12-.59-.58-1.54-.58-2.12,.01-.58,.58-.58,1.52,0,2.11Z"/>
                  <path class="cls-2" d="M182.02,404.21c.43,0,.85,.1,1.22,.31,.36,.2,.65,.5,.84,.86,.21,.38,.31,.8,.31,1.23,.02,.64-.23,1.26-.68,1.71-.87,.88-2.27,.94-3.22,.13v2.08h-.94v-6.22h.63l.18,.57c.21-.21,.46-.38,.74-.5,.29-.12,.6-.18,.91-.18Zm-1.15,3.47c.28,.28,.67,.44,1.07,.43,.4,.01,.79-.14,1.07-.43,.58-.59,.58-1.54-.01-2.12s-1.54-.58-2.12,.01c-.58,.58-.58,1.52,0,2.11Z"/>
                  <path class="cls-2" d="M185.4,408.91v-6.22h.94v6.22h-.94Z"/>
                  <path class="cls-2" d="M187.66,403.62v-.97h.97v.97h-.97Zm0,5.29v-4.58h.94v4.58h-.94Z"/>
                  <path class="cls-2" d="M192.01,409.02c-.43,0-.85-.1-1.22-.31-.36-.2-.66-.5-.86-.86-.21-.37-.32-.8-.31-1.23,0-.43,.1-.85,.31-1.22,.2-.36,.5-.67,.86-.86,.37-.21,.8-.32,1.23-.31,.53-.01,1.04,.16,1.45,.48,.4,.32,.68,.76,.79,1.27h-.93c-.12-.25-.31-.47-.54-.62-.24-.15-.51-.22-.79-.22-.39,0-.76,.14-1.03,.42-.56,.6-.56,1.54,0,2.14,.27,.29,.64,.45,1.03,.44,.28,0,.55-.08,.79-.24,.24-.16,.42-.38,.53-.64h1c-.11,.51-.39,.96-.79,1.29-.44,.34-.98,.51-1.53,.49Z"/>
                  <path class="cls-2" d="M199.04,404.32h.72v4.58h-.79l-.09-.55c-.21,.21-.46,.38-.74,.5-.29,.12-.6,.18-.92,.17-.43,0-.85-.1-1.22-.31-.36-.2-.66-.5-.86-.86-.42-.76-.42-1.69,0-2.45,.2-.36,.5-.66,.86-.86,.37-.21,.79-.32,1.22-.31,.32,0,.63,.06,.93,.18,.28,.11,.53,.28,.74,.5l.14-.57Zm-2.79,3.36c.58,.59,1.53,.6,2.12,.02,.29-.29,.45-.68,.45-1.09,.02-.8-.61-1.47-1.41-1.49-.03,0-.05,0-.08,0-.84,0-1.51,.69-1.5,1.53,0,.39,.16,.76,.43,1.04h0Z"/>
                  <path class="cls-2" d="M203.57,404.21c.64-.02,1.26,.23,1.71,.68,.9,.97,.9,2.47,0,3.44-.45,.46-1.07,.7-1.71,.68-.6,.02-1.19-.21-1.62-.64l-.12,.53h-.72v-6.22h.94v2.08c.42-.36,.96-.56,1.51-.55Zm-1.15,3.47c.28,.29,.67,.45,1.08,.43,.83,0,1.49-.69,1.49-1.52,0-.83-.69-1.49-1.52-1.49-.39,0-.77,.16-1.05,.44-.28,.29-.44,.68-.42,1.08,0,.39,.14,.78,.42,1.05Z"/>
                  <path class="cls-2" d="M206.95,408.91v-6.22h.94v6.22h-.94Z"/>
                  <path class="cls-2" d="M213.58,406.63c0,.1,0,.2,0,.31h-3.72c.07,.71,.69,1.24,1.4,1.2,.26,0,.51-.06,.73-.18,.21-.12,.38-.28,.5-.49h.99c-.16,.46-.47,.85-.86,1.13-.4,.28-.87,.43-1.36,.42-.63,.02-1.24-.24-1.67-.69-.45-.45-.69-1.07-.68-1.71,0-.43,.1-.85,.31-1.23,.2-.36,.49-.66,.85-.86,.36-.21,.78-.32,1.19-.31,.43,0,.86,.11,1.23,.33,.34,.21,.61,.52,.79,.87,.2,.37,.3,.79,.31,1.21Zm-2.36-1.57c-.67-.02-1.25,.45-1.38,1.11h2.77c-.07-.31-.25-.59-.5-.79-.25-.2-.55-.31-.87-.31h-.02Z"/>
                  <path class="cls-2" d="M220.08,408.7c-.38,.21-.81,.32-1.25,.31-.44,0-.87-.1-1.25-.31-.37-.2-.67-.5-.88-.86-.43-.76-.43-1.7,0-2.46,.21-.36,.51-.66,.88-.86,.38-.21,.81-.32,1.25-.31,.44,0,.87,.1,1.25,.31,.36,.2,.66,.5,.87,.86,.43,.76,.43,1.7,0,2.46-.21,.36-.51,.66-.87,.86Zm-2.36-1.01c.28,.29,.67,.44,1.07,.42,.4,.01,.79-.14,1.07-.42,.57-.61,.57-1.56,0-2.16-.28-.28-.67-.43-1.07-.42-.4-.02-.79,.13-1.07,.42-.57,.61-.57,1.56,0,2.16Z"/>
                  <path class="cls-2" d="M224.69,404.22c.48-.03,.95,.17,1.27,.53,.33,.39,.49,.89,.47,1.39v2.76h-.94v-2.57c.03-.34-.07-.67-.27-.94-.2-.23-.49-.34-.79-.32-.34,0-.66,.13-.88,.39-.24,.28-.36,.63-.35,1v2.45h-.94v-4.58h.65l.19,.64c.18-.24,.41-.43,.68-.55,.28-.13,.59-.2,.9-.2Z"/>
                  <path class="cls-2" d="M233.84,402.97h.95v5.94h-.79l-3.08-4.24v4.24h-.96v-5.94h.89l3.02,4.17-.03-4.17Z"/>
                  <path class="cls-2" d="M239.51,408.7c-.78,.42-1.72,.42-2.5,0-.37-.2-.67-.5-.88-.86-.42-.77-.42-1.69,0-2.46,.21-.36,.51-.66,.88-.86,.78-.42,1.72-.42,2.5,0,.37,.2,.67,.5,.88,.86,.42,.77,.42,1.69,0,2.46-.21,.36-.51,.66-.88,.86Zm-2.36-1.01c.6,.56,1.54,.56,2.14,0,.57-.61,.57-1.56,0-2.16-.6-.56-1.54-.56-2.14,0-.57,.61-.57,1.56,0,2.16Z"/>
                  <path class="cls-2" d="M244.14,404.22c.49-.02,.96,.18,1.29,.54,.33,.39,.49,.89,.47,1.39v2.76h-.94v-2.58c.03-.34-.07-.67-.27-.94-.2-.23-.49-.35-.79-.32-.34,0-.66,.13-.88,.39-.23,.28-.36,.63-.35,1v2.45h-.94v-4.58h.65l.18,.64c.18-.24,.41-.43,.68-.55,.28-.13,.58-.2,.89-.2Z"/>
                  <path class="cls-2" d="M247.04,406.99v-.91h2.72v.91h-2.72Z"/>
                  <path class="cls-2" d="M253.73,409.01c-.42,0-.83-.08-1.22-.24-.36-.14-.69-.35-.97-.63-.27-.28-.49-.61-.63-.97-.16-.39-.24-.81-.24-1.23,0-.42,.08-.84,.24-1.23,.14-.37,.35-.7,.63-.98,.28-.27,.61-.49,.97-.64,.39-.16,.8-.23,1.22-.23,.66-.01,1.31,.2,1.83,.6,.52,.4,.87,.97,1.01,1.61h-.98c-.13-.38-.37-.7-.7-.93-.83-.54-1.92-.43-2.63,.26-.77,.87-.77,2.19,0,3.06,.72,.69,1.82,.8,2.66,.24,.34-.25,.58-.6,.7-1h.99c-.27,1.36-1.48,2.34-2.87,2.3h0Z"/>
                  <path class="cls-2" d="M261.38,404.32h.72v4.58h-.79l-.09-.55c-.21,.21-.46,.38-.74,.5-.7,.27-1.48,.22-2.14-.14-.36-.2-.66-.5-.86-.86-.42-.76-.42-1.69,0-2.45,.2-.36,.5-.66,.86-.86,.37-.21,.79-.32,1.22-.31,.32,0,.63,.06,.93,.18,.28,.11,.54,.29,.75,.5l.14-.57Zm-2.79,3.36c.29,.28,.68,.44,1.08,.42,.4,.01,.79-.14,1.07-.42,.28-.29,.44-.68,.42-1.08,.02-.8-.61-1.47-1.41-1.49-.03,0-.05,0-.08,0-.4-.01-.79,.14-1.08,.42-.28,.28-.44,.67-.42,1.07-.01,.4,.14,.79,.42,1.08Z"/>
                  <path class="cls-2" d="M265.64,404.3h.41v.89h-.5c-.33-.02-.65,.1-.88,.33-.21,.27-.31,.6-.29,.94v2.44h-.94v-4.58h.64l.16,.63c.33-.44,.85-.68,1.4-.65Z"/>
                  <path class="cls-2" d="M271,406.63c0,.1,0,.2,0,.31h-3.71c.04,.34,.21,.65,.46,.88,.26,.22,.59,.33,.94,.32,.25,0,.5-.06,.72-.18,.21-.11,.39-.28,.5-.49h1c-.16,.46-.47,.85-.86,1.13-.4,.28-.87,.43-1.36,.42-.63,.02-1.24-.23-1.67-.69-.45-.45-.69-1.07-.68-1.71,0-.43,.1-.85,.31-1.23,.2-.36,.49-.66,.84-.86,.37-.21,.78-.32,1.2-.31,.43,0,.85,.11,1.22,.33,.34,.21,.61,.51,.79,.87,.2,.37,.31,.79,.31,1.21Zm-2.36-1.57c-.32,0-.64,.1-.9,.3-.24,.2-.41,.48-.48,.79h2.77c-.07-.31-.25-.59-.5-.79-.25-.19-.55-.3-.86-.29h-.02Z"/>
                  <path class="cls-2" d="M276.34,406.63v.31h-3.72c.07,.71,.69,1.24,1.4,1.2,.26,0,.51-.06,.73-.18,.21-.12,.38-.28,.5-.49h.99c-.16,.46-.47,.85-.86,1.13-.4,.28-.87,.43-1.36,.42-.63,.02-1.24-.23-1.67-.69-.45-.45-.69-1.07-.68-1.71,0-.43,.1-.85,.31-1.23,.2-.36,.49-.66,.85-.86,.36-.21,.78-.32,1.19-.31,.43,0,.86,.11,1.23,.33,.35,.21,.64,.51,.83,.87,.19,.38,.28,.79,.27,1.21Zm-2.36-1.57c-.67-.02-1.25,.45-1.38,1.11h2.77c-.07-.31-.25-.59-.5-.79-.25-.2-.55-.31-.87-.31h-.02Z"/>
                  <path class="cls-2" d="M279.54,404.3h.4v.89h-.5c-.33-.02-.64,.1-.87,.33-.21,.27-.32,.6-.29,.94v2.44h-.94v-4.58h.64l.16,.63c.33-.44,.86-.68,1.41-.65Z"/>
                </g>
              </g>
              <g>
                <rect class="cls-2" x="143.63" y="366.28" width="157.03" height="29.45" rx="3.28" ry="3.28"/>
                <g>
                  <path class="cls-5" d="M160.82,373.43h8.94v3.43h-5.18v2.39h4.31v3.39h-4.31v2.5h5.35v3.43h-9.11v-15.14Z"/>
                  <path class="cls-5" d="M171.51,373.43h3.75l5.8,9h.11v-9h3.75v15.14h-3.75l-5.8-9h-.11v9h-3.75v-15.14Z"/>
                  <path class="cls-5" d="M192.01,383.82h-1.47v4.76h-3.75v-15.14h5.65c3.24,0,5.52,2.03,5.52,5.31,0,2.09-.96,3.61-2.52,4.42l3.39,5.42h-3.97l-2.86-4.76Zm.06-3.2c1.17,0,2.09-.38,2.09-1.88s-.92-1.88-2.09-1.88h-1.54v3.75h1.54Z"/>
                  <path class="cls-5" d="M199.11,381.01c0-4.63,3.56-7.79,7.89-7.79s7.87,3.16,7.87,7.79-3.56,7.79-7.87,7.79-7.89-3.16-7.89-7.79Zm7.89,4.22c2.22,0,4.01-1.64,4.01-4.22s-1.79-4.22-4.01-4.22-4.03,1.64-4.03,4.22,1.79,4.22,4.03,4.22Z"/>
                  <path class="cls-5" d="M216.54,373.43h3.75v11.71h5.38v3.43h-9.13v-15.14Z"/>
                  <path class="cls-5" d="M231.36,373.43h3.75l5.8,9h.11v-9h3.75v15.14h-3.75l-5.8-9h-.11v9h-3.75v-15.14Z"/>
                  <path class="cls-5" d="M246.42,381.01c0-4.63,3.56-7.79,7.89-7.79s7.87,3.16,7.87,7.79-3.56,7.79-7.87,7.79-7.89-3.16-7.89-7.79Zm7.89,4.22c2.22,0,4.01-1.64,4.01-4.22s-1.79-4.22-4.01-4.22-4.03,1.64-4.03,4.22,1.79,4.22,4.03,4.22Z"/>
                  <path class="cls-5" d="M261.91,373.43h3.95l2.56,8.72,2.79-8.72h2.97l2.79,8.72,2.56-8.72h3.95l-4.8,15.14h-2.94l-3.05-8.83-3.03,8.83h-2.94l-4.8-15.14Z"/>
                </g>
              </g>
              <g>
                <path class="cls-2" d="M152,345.51h2.27l3.04,8.28,3.04-8.28h2.27l-4.21,10.91h-2.23l-4.19-10.91Z"/>
                <path class="cls-2" d="M161.97,352.42c0-2.76,1.98-4.15,3.84-4.15,1.43,0,2.35,.78,2.55,1.23h.05v-1.07h2.06v7.99h-2.06v-1.07h-.05c-.2,.44-1.12,1.23-2.55,1.23-1.86,0-3.84-1.38-3.84-4.15Zm4.25,2.3c1.15,0,2.23-.8,2.23-2.3s-1.07-2.3-2.23-2.3-2.23,.81-2.23,2.3,1.08,2.3,2.23,2.3Z"/>
                <path class="cls-2" d="M172.03,345.51h2.06v10.91h-2.06v-10.91Z"/>
                <path class="cls-2" d="M175.65,345.51h2.06v1.81h-2.06v-1.81Zm0,2.92h2.06v7.99h-2.06v-7.99Z"/>
                <path class="cls-2" d="M185.33,356.42v-1.07h-.05c-.2,.44-1.12,1.23-2.55,1.23-1.86,0-3.84-1.38-3.84-4.15s1.98-4.15,3.84-4.15c1.43,0,2.35,.78,2.55,1.23h.05v-3.99h2.06v10.91h-2.06Zm-2.18-1.69c1.15,0,2.23-.8,2.23-2.3s-1.07-2.3-2.23-2.3-2.23,.81-2.23,2.3,1.08,2.3,2.23,2.3Z"/>
                <path class="cls-2" d="M191.73,352.42c0-2.7,2.12-4.15,4.21-4.15s4.21,1.44,4.21,4.15-2.13,4.15-4.21,4.15-4.21-1.44-4.21-4.15Zm4.21,2.29c1.15,0,2.17-.86,2.17-2.29s-1.01-2.29-2.17-2.29-2.18,.86-2.18,2.29,1.03,2.29,2.18,2.29Z"/>
                <path class="cls-2" d="M201.33,348.43h2.06v1.09c.45-.71,1.24-1.24,2.44-1.24,1.64,0,3.03,1.01,3.03,3.44v4.7h-2.06v-4.36c0-1.17-.63-1.94-1.71-1.94s-1.71,.77-1.71,1.94v4.36h-2.06v-7.99Z"/>
                <path class="cls-2" d="M210.42,345.51h2.06v10.91h-2.06v-10.91Z"/>
                <path class="cls-2" d="M216.83,356.34l-3.32-7.91h2.1l2.21,5.54,2.2-5.54h2.12l-3.36,7.99-1.24,2.92h-2.01l1.31-3Z"/>
                <path class="cls-2" d="M229.5,345.18c.41,0,.98,.05,1.43,.31v1.61c-.38-.18-.75-.17-.89-.17-.78,0-1.17,.43-1.17,1.21v.29h2.06v1.64h-2.06v6.34h-2.06v-6.34h-1.01v-1.64h1.01v-.52c0-2.35,1.63-2.73,2.69-2.73Z"/>
                <path class="cls-2" d="M231.42,352.42c0-2.7,2.12-4.15,4.21-4.15s4.21,1.44,4.21,4.15-2.13,4.15-4.21,4.15-4.21-1.44-4.21-4.15Zm4.21,2.29c1.15,0,2.17-.86,2.17-2.29s-1.01-2.29-2.17-2.29-2.18,.86-2.18,2.29,1.03,2.29,2.18,2.29Z"/>
                <path class="cls-2" d="M241.01,348.43h2.06v2.07c.28-1.23,1.06-2.23,2.5-2.23,.18,0,.35,.01,.54,.06v1.97c-.18-.03-.34-.05-.52-.05-1.55,0-2.52,1.08-2.52,2.67v3.49h-2.06v-7.99Z"/>
                <path class="cls-2" d="M250.89,354.21v-4.13h-1.14v-1.64h1.14v-2.04h2.07v2.04h1.64v1.64h-1.64v3.79c0,.41,.23,.81,.91,.81,.18,0,.46-.03,.75-.12v1.58c-.31,.28-.89,.37-1.4,.37-1.35,0-2.33-.66-2.33-2.3Z"/>
                <path class="cls-2" d="M255.41,352.42c0-2.7,2.12-4.15,4.21-4.15s4.21,1.44,4.21,4.15-2.13,4.15-4.21,4.15-4.21-1.44-4.21-4.15Zm4.21,2.29c1.15,0,2.17-.86,2.17-2.29s-1.01-2.29-2.17-2.29-2.18,.86-2.18,2.29,1.03,2.29,2.18,2.29Z"/>
                <path class="cls-2" d="M271.06,356.42v-1.07h-.05c-.2,.44-1.12,1.23-2.55,1.23-1.86,0-3.84-1.38-3.84-4.15s1.98-4.15,3.84-4.15c1.43,0,2.35,.78,2.55,1.23h.05v-3.99h2.06v10.91h-2.06Zm-2.18-1.69c1.15,0,2.23-.8,2.23-2.3s-1.07-2.3-2.23-2.3-2.23,.81-2.23,2.3,1.08,2.3,2.23,2.3Z"/>
                <path class="cls-2" d="M274.3,352.42c0-2.76,1.98-4.15,3.84-4.15,1.43,0,2.35,.78,2.55,1.23h.05v-1.07h2.06v7.99h-2.06v-1.07h-.05c-.2,.44-1.12,1.23-2.55,1.23-1.86,0-3.84-1.38-3.84-4.15Zm4.25,2.3c1.15,0,2.23-.8,2.23-2.3s-1.07-2.3-2.23-2.3-2.23,.81-2.23,2.3,1.08,2.3,2.23,2.3Z"/>
                <path class="cls-2" d="M286.98,356.34l-3.32-7.91h2.1l2.21,5.54,2.2-5.54h2.12l-3.36,7.99-1.24,2.92h-2.01l1.31-3Z"/>
              </g>
            </g>
            <g>
              <g>
                <g>
                  <path class="cls-3" d="M184.81,243.83h-20.47v-9.27l20.47-29.19h10.85v29.19h5.15v9.27h-5.15v10.3h-10.85v-10.3Zm0-9.27v-14.77l-9.75,14.77h9.75Z"/>
                  <path class="cls-3" d="M213.18,215.12h-8.38v-9.75h19.03v48.77h-10.65v-39.01Z"/>
                  <path class="cls-3" d="M238.25,205.02c4.81,0,8.52,3.71,8.52,8.45s-3.71,8.45-8.52,8.45-8.52-3.71-8.52-8.45,3.71-8.45,8.52-8.45Zm-5.63,44.1l28.23-43.96,7.97,5.01-28.16,43.96-8.04-5.01Zm5.63-33.93c1.03,0,1.72-.76,1.72-1.72s-.69-1.72-1.72-1.72-1.72,.76-1.72,1.72,.69,1.72,1.72,1.72Zm26.1,22.39c4.81,0,8.52,3.71,8.52,8.45s-3.71,8.45-8.52,8.45-8.52-3.71-8.52-8.45,3.71-8.45,8.52-8.45Zm0,10.17c1.03,0,1.72-.76,1.72-1.72s-.69-1.72-1.72-1.72-1.72,.76-1.72,1.72,.69,1.72,1.72,1.72Z"/>
                  <path class="cls-3" d="M161.49,283.02c0-14.9,11.47-25.07,25.28-25.07s25.28,10.17,25.28,25.07-11.54,25.07-25.28,25.07-25.28-10.17-25.28-25.07Zm25.28,14.77c7.69,0,14.08-5.77,14.08-14.77s-6.39-14.77-14.08-14.77-14.08,5.77-14.08,14.77,6.39,14.77,14.08,14.77Z"/>
                  <path class="cls-3" d="M216.44,258.63h27.89v9.89h-17.03v9.75h16.14v9.27h-16.14v19.85h-10.85v-48.77Z"/>
                  <path class="cls-3" d="M248.38,258.63h27.89v9.89h-17.03v9.75h16.14v9.27h-16.14v19.85h-10.85v-48.77Z"/>
                </g>
                <g>
                  <rect class="cls-2" x="142.34" y="209.03" width="38.31" height="16.42" rx="1.73" ry="1.73"/>
                  <g>
                    <path d="M151.93,212.62h4.74v1.25h-3.37v2.45h3.1v1.16h-3.1v3.74h-1.37v-8.6Z"/>
                    <path d="M157.81,212.62h1.33v8.6h-1.33v-8.6Z"/>
                    <path d="M160.17,218.07c0-2.17,1.56-3.27,3.05-3.27,1.15,0,1.95,.63,2.18,1.13h.04v-1h1.33v6.3h-1.33v-1.01h-.04c-.23,.5-1.03,1.13-2.18,1.13-1.49,0-3.05-1.1-3.05-3.27Zm3.31,2.06c1.02,0,2-.7,2-2.06s-.98-2.06-2-2.06-1.99,.7-1.99,2.06,.98,2.06,1.99,2.06Z"/>
                    <path d="M168.68,219.7v-3.69h-.87v-1.08h.87v-1.61h1.35v1.61h1.27v1.08h-1.27v3.45c0,.36,.19,.64,.69,.64,.15,0,.35-.03,.58-.11v1.05c-.23,.19-.64,.25-.98,.25-.96,0-1.64-.47-1.64-1.6Z"/>
                  </g>
                </g>
              </g>
              <g>
                <path class="cls-2" d="M180.1,319.9c0-2.4,1.86-3.75,3.73-3.75s3.73,1.35,3.73,3.75-1.86,3.75-3.73,3.75-3.73-1.35-3.73-3.75Zm3.73,2.98c1.46,0,2.88-1.06,2.88-2.98s-1.42-2.97-2.88-2.97-2.88,1.06-2.88,2.97,1.42,2.98,2.88,2.98Z"/>
                <path class="cls-2" d="M188.95,316.28h.85v1.27c.36-.71,1.17-1.41,2.5-1.41,1.54,0,2.86,.96,2.86,3.11v4.25h-.85v-4.16c0-1.65-.99-2.43-2.24-2.43s-2.28,.78-2.28,2.43v4.16h-.85v-7.23Z"/>
                <path class="cls-2" d="M199.59,319.9c0-2.46,1.78-3.75,3.59-3.75,1.36,0,2.47,.75,2.89,1.68h.04v-1.54h.85v7.23h-.85v-1.54h-.04c-.42,.93-1.53,1.68-2.89,1.68-1.81,0-3.59-1.29-3.59-3.75Zm3.7,2.98c1.42,0,2.85-.99,2.85-2.98s-1.43-2.97-2.85-2.97-2.85,.97-2.85,2.97,1.43,2.98,2.85,2.98Z"/>
                <path class="cls-2" d="M208.7,313.64h.85v9.87h-.85v-9.87Z"/>
                <path class="cls-2" d="M211.3,313.64h.85v9.87h-.85v-9.87Z"/>
                <path class="cls-2" d="M216.58,319.91c0-2.42,1.86-3.77,3.71-3.77,1.25,0,2.46,.61,3.09,1.78l-.67,.38c-.49-.89-1.42-1.38-2.39-1.38-1.43,0-2.89,1.06-2.89,2.99s1.46,2.96,2.89,2.96c.97,0,1.91-.49,2.39-1.38l.67,.37c-.63,1.17-1.83,1.78-3.09,1.78-1.85,0-3.71-1.35-3.71-3.74Z"/>
                <path class="cls-2" d="M224.35,319.9c0-2.4,1.86-3.75,3.73-3.75s3.73,1.35,3.73,3.75-1.86,3.75-3.73,3.75-3.73-1.35-3.73-3.75Zm3.73,2.98c1.46,0,2.88-1.06,2.88-2.98s-1.42-2.97-2.88-2.97-2.88,1.06-2.88,2.97,1.42,2.98,2.88,2.98Z"/>
                <path class="cls-2" d="M239.41,323.51h-.85v-1.27c-.36,.71-1.17,1.4-2.5,1.4-1.54,0-2.86-.96-2.86-3.11v-4.25h.85v4.16c0,1.65,.99,2.43,2.24,2.43s2.28-.78,2.28-2.43v-4.16h.85v7.23Z"/>
                <path class="cls-2" d="M241.16,316.28h.85v1.68c.29-.97,1.01-1.82,2.35-1.82,.17,0,.28,.02,.38,.04v.79c-.11-.03-.21-.04-.36-.04-1.32,0-2.36,1.04-2.36,2.74v3.84h-.85v-7.23Z"/>
                <path class="cls-2" d="M245.58,321.73l.74-.21c.22,.9,.89,1.39,1.74,1.39,.78,0,1.56-.39,1.56-1.29,0-.74-.5-1.07-1.45-1.47l-.56-.22c-1.2-.49-1.68-1.18-1.68-1.97,0-1.07,.9-1.81,2.1-1.81,1.08,0,1.9,.6,2.15,1.52l-.68,.22c-.24-.61-.68-1.01-1.45-1.01-.7,0-1.29,.36-1.29,1.08,0,.54,.33,.96,1.18,1.31l.49,.19c1.25,.51,2.03,1,2.03,2.17,0,1.4-1.21,2.03-2.41,2.03-1.32,0-2.25-.74-2.47-1.92Z"/>
                <path class="cls-2" d="M251.51,319.88c0-2.42,1.76-3.74,3.57-3.74s3.68,1.34,3.45,4.06h-6.21c.14,1.75,1.45,2.7,2.96,2.7,.92,0,1.77-.35,2.29-.97l.44,.46c-.65,.81-1.71,1.26-2.84,1.26-1.92,0-3.67-1.33-3.67-3.77Zm6.26-.36c-.04-1.7-1.31-2.63-2.68-2.63s-2.61,.9-2.77,2.63h5.45Z"/>
                <path class="cls-2" d="M259.32,321.73l.74-.21c.22,.9,.89,1.39,1.74,1.39,.78,0,1.56-.39,1.56-1.29,0-.74-.5-1.07-1.45-1.47l-.56-.22c-1.2-.49-1.68-1.18-1.68-1.97,0-1.07,.9-1.81,2.1-1.81,1.08,0,1.9,.6,2.15,1.52l-.68,.22c-.24-.61-.68-1.01-1.45-1.01-.7,0-1.29,.36-1.29,1.08,0,.54,.33,.96,1.18,1.31l.49,.19c1.25,.51,2.03,1,2.03,2.17,0,1.4-1.21,2.03-2.41,2.03-1.32,0-2.25-.74-2.47-1.92Z"/>
              </g>
            </g>
          </g>
          <g>
            <g class="cls-7">
              <rect class="cls-1" x="115.49" y="426.82" width="212.03" height=".36"/>
            </g>
            <g class="cls-7">
              <rect class="cls-1" x="115.49" y="197.74" width="212.03" height=".36"/>
            </g>
          </g>
        </g>
      </g>
    </g>
  </g>
</svg>