<svg version="1.2" baseProfile="tiny-ps" xmlns="http://www.w3.org/2000/svg" viewBox="0 0 296 52" width="296" height="52">
	<title>logo-big-svg</title>
	<style>
		tspan { white-space:pre }
		.shp0 { fill: #eb2424 } 
		.shp1 { fill: #353263 } 
	</style>
	<g id="logo">
		<g id="logo-2">
			<g id="Folder_1">
				<g id="Group_4">
					<path id="Path_6" class="shp0" d="M6.45 21.06C7.35 18.2 8.92 15.58 11.01 13.43C13.11 11.28 15.68 9.65 18.52 8.67C21.36 7.69 24.39 7.39 27.37 7.79C30.34 8.2 33.18 9.29 35.66 10.99C35.99 10.66 36.3 10.32 36.61 9.97C36.92 9.62 37.22 9.27 37.51 8.9C37.8 8.54 38.08 8.17 38.36 7.8C38.63 7.42 38.9 7.04 39.15 6.66C35.92 4.36 32.18 2.87 28.24 2.31C24.31 1.76 20.3 2.16 16.56 3.48C12.81 4.8 9.44 7 6.72 9.89C4 12.79 2.02 16.29 0.94 20.11L3.42 20.59C4.44 20.79 5.45 20.94 6.45 21.06Z" />
					<path id="Path_7" class="shp0" d="M45.24 0C45.3 2.2 44.12 5.43 41.82 8.85C41.56 9.23 41.29 9.61 41.01 9.99C40.73 10.36 40.45 10.73 40.16 11.09C39.87 11.45 39.57 11.81 39.26 12.16C38.95 12.51 38.64 12.85 38.32 13.19C22.16 27.12 4.25 24.87 0.25 23.34C0.11 24.3 0.03 25.27 0.01 26.24C-0.02 27.21 0.02 28.17 0.1 29.14C0.19 30.1 0.34 31.06 0.54 32.01C0.74 32.96 1 33.89 1.3 34.81C1.8 34.84 2.29 34.87 2.79 34.88C3.29 34.9 3.78 34.9 4.28 34.9C4.77 34.9 5.27 34.88 5.76 34.86C6.26 34.84 6.75 34.8 7.25 34.76C21.32 33.83 34.61 26.78 41.17 16.76C41.46 16.32 41.74 15.88 42 15.43C42.26 14.98 42.51 14.52 42.75 14.05C42.98 13.59 43.2 13.11 43.41 12.63C43.62 12.15 43.81 11.67 44 11.18C44.32 10.29 44.6 9.38 44.81 8.46C45.03 7.54 45.19 6.61 45.3 5.67C45.4 4.72 45.45 3.78 45.44 2.83C45.43 1.88 45.36 0.94 45.24 0L45.24 0Z" />
				</g>
				<path id="Path_8" class="shp1" d="M7.59 44.7C15.79 43.83 30.17 39.52 41.27 25.06C41.54 24.62 41.81 24.17 42.06 23.72C42.32 23.27 42.56 22.82 42.8 22.36C43.04 21.9 43.26 21.43 43.48 20.96C43.7 20.49 43.91 20.02 44.1 19.54C44.43 18.73 44.72 17.95 44.96 17.18C44.81 17.45 44.65 17.72 44.48 17.98C44.32 18.24 44.15 18.51 43.98 18.77C43.8 19.03 43.63 19.28 43.45 19.54C43.27 19.79 43.09 20.05 42.9 20.3C42.34 21.04 41.75 21.77 41.12 22.5C33.62 31.09 21.68 36.82 9.15 38.05C7.53 38.21 5.91 38.3 4.29 38.3L2.8 38.31C3.11 38.9 3.45 39.48 3.8 40.05C4.16 40.61 4.54 41.16 4.94 41.7C5.34 42.23 5.76 42.75 6.2 43.25C6.64 43.75 7.11 44.24 7.59 44.7ZM47.24 16.31C47.26 16.75 47.27 17.19 47.28 17.63C47.28 18.08 47.27 18.52 47.25 18.96C47.23 19.4 47.2 19.84 47.15 20.27C47.11 20.71 47.06 21.15 46.99 21.59C46.91 22.16 46.81 22.73 46.69 23.3C46.57 23.87 46.44 24.44 46.28 25C46.13 25.56 45.97 26.11 45.78 26.67C45.6 27.22 45.4 27.76 45.18 28.3C41.46 37.76 33.07 46.23 22.6 51.57C23.32 51.64 24.06 51.67 24.8 51.67C28.98 51.68 33.09 50.62 36.75 48.61C40.41 46.6 43.51 43.69 45.75 40.16C47.98 36.64 49.29 32.6 49.56 28.43C49.82 24.26 49.02 20.09 47.24 16.31Z" />
			</g>
			<g id="Coding_Ninjas_Offers">
				<path id="Coding Ninjas " fill="#eb2424" aria-label="Coding Ninjas "  d="M56.78 26.95C56.78 31.76 60.3 35.14 64.92 35.14C68.49 35.14 71.38 33.25 72.46 29.94L68.76 29.94C68 31.5 66.62 32.26 64.9 32.26C62.09 32.26 60.09 30.19 60.09 26.95C60.09 23.68 62.09 21.64 64.9 21.64C66.62 21.64 68 22.4 68.76 23.94L72.46 23.94C71.38 20.65 68.49 18.74 64.92 18.74C60.3 18.74 56.78 22.14 56.78 26.95ZM87.53 28.63C87.53 24.6 84.65 22.05 80.97 22.05C77.29 22.05 74.42 24.6 74.42 28.63C74.42 32.63 77.2 35.21 80.88 35.21C84.59 35.21 87.53 32.63 87.53 28.63ZM77.69 28.63C77.69 26.08 79.23 24.86 80.93 24.86C82.63 24.86 84.22 26.08 84.22 28.63C84.22 31.16 82.58 32.4 80.88 32.4C79.16 32.4 77.69 31.16 77.69 28.63ZM89.07 28.58C89.07 32.56 91.65 35.21 94.89 35.21C96.89 35.21 98.32 34.29 99.08 33.11L99.08 35L102.34 35L102.34 17.98L99.08 17.98L99.08 24.03C98.2 22.83 96.59 22.05 94.91 22.05C91.65 22.05 89.07 24.6 89.07 28.58ZM99.1 28.63C99.1 31.04 97.49 32.38 95.72 32.38C93.99 32.38 92.36 31 92.36 28.58C92.36 26.17 93.99 24.88 95.72 24.88C97.49 24.88 99.1 26.21 99.1 28.63ZM105.49 35L108.71 35L108.71 22.26L105.49 22.26ZM107.13 20.74C108.25 20.74 109.1 19.91 109.1 18.85C109.1 17.8 108.25 16.97 107.13 16.97C105.98 16.97 105.15 17.8 105.15 18.85C105.15 19.91 105.98 20.74 107.13 20.74ZM120.81 35L124.03 35L124.03 27.52C124.03 24.01 121.91 22.07 118.95 22.07C117.31 22.07 115.93 22.76 115.11 23.84L115.11 22.26L111.89 22.26L111.89 35L115.11 35L115.11 27.96C115.11 25.91 116.23 24.81 117.98 24.81C119.68 24.81 120.81 25.91 120.81 27.96ZM126.26 28.58C126.26 32.56 128.84 35.21 132.08 35.21C134.08 35.21 135.53 34.22 136.29 33.11L136.29 35.09C136.29 37.46 134.91 38.47 133.14 38.47C131.53 38.47 130.33 37.71 130.01 36.56L126.81 36.56C127.14 39.48 129.64 41.28 133.23 41.28C137.42 41.28 139.53 38.54 139.53 35.09L139.53 22.26L136.29 22.26L136.29 24.08C135.53 22.97 134.08 22.05 132.08 22.05C128.84 22.05 126.26 24.6 126.26 28.58ZM136.29 28.63C136.29 31.04 134.68 32.38 132.91 32.38C131.18 32.38 129.55 31 129.55 28.58C129.55 26.17 131.18 24.88 132.91 24.88C134.68 24.88 136.29 26.21 136.29 28.63ZM158.67 18.92L158.67 29.96L151.38 18.92L148.16 18.92L148.16 35L151.38 35L151.38 23.98L158.67 35L161.89 35L161.89 18.92ZM165.06 35L168.28 35L168.28 22.26L165.06 22.26ZM166.7 20.74C167.82 20.74 168.67 19.91 168.67 18.85C168.67 17.8 167.82 16.97 166.7 16.97C165.55 16.97 164.72 17.8 164.72 18.85C164.72 19.91 165.55 20.74 166.7 20.74ZM180.38 35L183.6 35L183.6 27.52C183.6 24.01 181.48 22.07 178.52 22.07C176.88 22.07 175.5 22.76 174.68 23.84L174.68 22.26L171.46 22.26L171.46 35L174.68 35L174.68 27.96C174.68 25.91 175.8 24.81 177.55 24.81C179.25 24.81 180.38 25.91 180.38 27.96ZM188.29 20.74C189.42 20.74 190.25 19.91 190.25 18.85C190.25 17.8 189.42 16.97 188.29 16.97C187.12 16.97 186.29 17.8 186.29 18.85C186.29 19.91 187.12 20.74 188.29 20.74ZM186.66 22.26L186.66 37.12C186.66 37.97 186.31 38.34 185.33 38.34L184.41 38.34L184.41 41.07L185.83 41.07C188.29 41.07 189.88 40.04 189.88 37.09L189.88 22.26ZM192.23 28.58C192.23 32.56 194.8 35.21 198.02 35.21C200.05 35.21 201.49 34.24 202.25 33.14L202.25 35L205.5 35L205.5 22.26L202.25 22.26L202.25 24.08C201.49 23.02 200.09 22.05 198.04 22.05C194.8 22.05 192.23 24.6 192.23 28.58ZM202.25 28.63C202.25 31.04 200.64 32.38 198.87 32.38C197.15 32.38 195.51 31 195.51 28.58C195.51 26.17 197.15 24.88 198.87 24.88C200.64 24.88 202.25 26.21 202.25 28.63ZM218.54 31.37C218.45 26.7 211.38 28.15 211.38 25.82C211.38 25.09 212.01 24.6 213.2 24.6C214.47 24.6 215.25 25.27 215.34 26.26L218.42 26.26C218.24 23.73 216.38 22.05 213.29 22.05C210.14 22.05 208.26 23.75 208.26 25.87C208.26 30.54 215.46 29.09 215.46 31.37C215.46 32.1 214.77 32.68 213.5 32.68C212.21 32.68 211.32 31.94 211.2 30.98L207.96 30.98C208.1 33.34 210.33 35.21 213.52 35.21C216.63 35.21 218.54 33.55 218.54 31.37Z" />
				<path id="Offers" fill="#353263" aria-label="Offers"  d="M242.22 25.93C242.22 21.12 238.59 17.72 234.01 17.72C229.48 17.72 225.78 21.12 225.78 25.93C225.78 30.76 229.48 34.16 234.01 34.16C238.57 34.16 242.22 30.76 242.22 25.93ZM229.09 25.93C229.09 22.66 231.09 20.61 234.01 20.61C236.91 20.61 238.91 22.66 238.91 25.93C238.91 29.19 236.91 31.29 234.01 31.29C231.09 31.29 229.09 29.19 229.09 25.93ZM244.96 34L248.23 34L248.23 23.9L250.46 23.9L250.46 21.26L248.23 21.26L248.23 20.73C248.23 19.3 248.76 18.8 250.32 18.84L250.32 16.13C246.73 16.04 244.96 17.49 244.96 20.61L244.96 21.26L243.51 21.26L243.51 23.9L244.96 23.9ZM252.9 34L256.16 34L256.16 23.9L258.39 23.9L258.39 21.26L256.16 21.26L256.16 20.73C256.16 19.3 256.69 18.8 258.25 18.84L258.25 16.13C254.67 16.04 252.9 17.49 252.9 20.61L252.9 21.26L251.45 21.26L251.45 23.9L252.9 23.9ZM265.96 23.7C267.62 23.7 268.95 24.75 269 26.43L262.95 26.43C263.2 24.69 264.42 23.7 265.96 23.7ZM272.01 30L268.54 30C268.12 30.85 267.36 31.54 265.98 31.54C264.37 31.54 263.08 30.48 262.92 28.59L272.24 28.59C272.31 28.18 272.33 27.77 272.33 27.35C272.33 23.56 269.73 21.05 266.05 21.05C262.28 21.05 259.66 23.6 259.66 27.63C259.66 31.63 262.35 34.21 266.05 34.21C269.2 34.21 271.32 32.34 272.01 30ZM277.9 27.65C277.9 25.19 279.05 24.45 280.96 24.45L281.81 24.45L281.81 21.07C280.04 21.07 278.7 21.93 277.9 23.24L277.9 21.26L274.68 21.26L274.68 34L277.9 34ZM293.86 30.37C293.77 25.7 286.71 27.15 286.71 24.82C286.71 24.09 287.33 23.6 288.52 23.6C289.79 23.6 290.57 24.27 290.66 25.26L293.74 25.26C293.56 22.73 291.7 21.05 288.62 21.05C285.46 21.05 283.58 22.75 283.58 24.87C283.58 29.54 290.78 28.09 290.78 30.37C290.78 31.1 290.09 31.68 288.82 31.68C287.53 31.68 286.64 30.94 286.52 29.98L283.28 29.98C283.42 32.34 285.65 34.21 288.84 34.21C291.95 34.21 293.86 32.55 293.86 30.37Z" />
			</g>
		</g>
	</g>
</svg>