<svg version="1.2" baseProfile="tiny-ps" xmlns="http://www.w3.org/2000/svg" viewBox="0 0 314 52" width="314" height="52">
	<title>logo-big-svg</title>
	<style>
		tspan { white-space:pre }
		.shp0 { fill: #eb2424 } 
		.shp1 { fill: #353263 } 
	</style>
	<g id="logo">
		<g id="logo-2">
			<g id="Folder_1">
				<g id="Group_4">
					<path id="Path_6" class="shp0" d="M6.45 21.06C7.35 18.2 8.92 15.58 11.01 13.43C13.11 11.28 15.68 9.65 18.52 8.67C21.36 7.69 24.39 7.39 27.37 7.79C30.34 8.2 33.18 9.29 35.66 10.99C35.99 10.66 36.3 10.32 36.61 9.97C36.92 9.62 37.22 9.27 37.51 8.9C37.8 8.54 38.08 8.17 38.36 7.8C38.63 7.42 38.9 7.04 39.15 6.66C35.92 4.36 32.18 2.87 28.24 2.31C24.31 1.76 20.3 2.16 16.56 3.48C12.81 4.8 9.44 7 6.72 9.89C4 12.79 2.02 16.29 0.94 20.11L3.42 20.59C4.44 20.79 5.45 20.94 6.45 21.06Z" />
					<path id="Path_7" class="shp0" d="M45.24 0C45.3 2.2 44.12 5.43 41.82 8.85C41.56 9.23 41.29 9.61 41.01 9.99C40.73 10.36 40.45 10.73 40.16 11.09C39.87 11.45 39.57 11.81 39.26 12.16C38.95 12.51 38.64 12.85 38.32 13.19C22.16 27.12 4.25 24.87 0.25 23.34C0.11 24.3 0.03 25.27 0.01 26.24C-0.02 27.21 0.02 28.17 0.1 29.14C0.19 30.1 0.34 31.06 0.54 32.01C0.74 32.96 1 33.89 1.3 34.81C1.8 34.84 2.29 34.87 2.79 34.88C3.29 34.9 3.78 34.9 4.28 34.9C4.77 34.9 5.27 34.88 5.76 34.86C6.26 34.84 6.75 34.8 7.25 34.76C21.32 33.83 34.61 26.78 41.17 16.76C41.46 16.32 41.74 15.88 42 15.43C42.26 14.98 42.51 14.52 42.75 14.05C42.98 13.59 43.2 13.11 43.41 12.63C43.62 12.15 43.81 11.67 44 11.18C44.32 10.29 44.6 9.38 44.81 8.46C45.03 7.54 45.19 6.61 45.3 5.67C45.4 4.72 45.45 3.78 45.44 2.83C45.43 1.88 45.36 0.94 45.24 0L45.24 0Z" />
				</g>
				<path id="Path_8" class="shp1" d="M7.59 44.7C15.79 43.83 30.17 39.52 41.27 25.06C41.54 24.62 41.81 24.17 42.06 23.72C42.32 23.27 42.56 22.82 42.8 22.36C43.04 21.9 43.26 21.43 43.48 20.96C43.7 20.49 43.91 20.02 44.1 19.54C44.43 18.73 44.72 17.95 44.96 17.18C44.81 17.45 44.65 17.72 44.48 17.98C44.32 18.24 44.15 18.51 43.98 18.77C43.8 19.03 43.63 19.28 43.45 19.54C43.27 19.79 43.09 20.05 42.9 20.3C42.34 21.04 41.75 21.77 41.12 22.5C33.62 31.09 21.68 36.82 9.15 38.05C7.53 38.21 5.91 38.3 4.29 38.3L2.8 38.31C3.11 38.9 3.45 39.48 3.8 40.05C4.16 40.61 4.54 41.16 4.94 41.7C5.34 42.23 5.76 42.75 6.2 43.25C6.64 43.75 7.11 44.24 7.59 44.7ZM47.24 16.31C47.26 16.75 47.27 17.19 47.28 17.63C47.28 18.08 47.27 18.52 47.25 18.96C47.23 19.4 47.2 19.84 47.15 20.27C47.11 20.71 47.06 21.15 46.99 21.59C46.91 22.16 46.81 22.73 46.69 23.3C46.57 23.87 46.44 24.44 46.28 25C46.13 25.56 45.97 26.11 45.78 26.67C45.6 27.22 45.4 27.76 45.18 28.3C41.46 37.76 33.07 46.23 22.6 51.57C23.32 51.64 24.06 51.67 24.8 51.67C28.98 51.68 33.09 50.62 36.75 48.61C40.41 46.6 43.51 43.69 45.75 40.16C47.98 36.64 49.29 32.6 49.56 28.43C49.82 24.26 49.02 20.09 47.24 16.31Z" />
			</g>
			<g id="Coding_Ninjas_Offers">
				<path id="Coding Ninjas " fill="#eb2424" aria-label="Coding Ninjas "  d="M61.73 26.9C61.73 31.73 65.09 35.12 69.85 35.12C73.69 35.12 76.59 32.98 77.51 29.48L73.19 29.48C72.52 30.86 71.3 31.55 69.81 31.55C67.39 31.55 65.73 29.76 65.73 26.9C65.73 24.05 67.39 22.26 69.81 22.26C71.3 22.26 72.52 22.95 73.19 24.33L77.51 24.33C76.59 20.83 73.69 18.67 69.85 18.67C65.09 18.67 61.73 22.07 61.73 26.9ZM92.48 28.58C92.48 24.51 89.59 21.98 85.81 21.98C82.06 21.98 79.14 24.51 79.14 28.58C79.14 32.65 82 35.18 85.77 35.18C89.54 35.18 92.48 32.65 92.48 28.58ZM83.15 28.58C83.15 26.4 84.39 25.39 85.81 25.39C87.19 25.39 88.48 26.4 88.48 28.58C88.48 30.75 87.17 31.78 85.77 31.78C84.34 31.78 83.15 30.75 83.15 28.58ZM93.79 28.56C93.79 32.61 96.3 35.18 99.45 35.18C101.34 35.18 102.7 34.33 103.41 33.16L103.41 35L107.34 35L107.34 17.98L103.41 17.98L103.41 23.94C102.63 22.76 101.15 21.98 99.45 21.98C96.3 21.98 93.79 24.51 93.79 28.56ZM103.41 28.58C103.41 30.63 102.1 31.76 100.6 31.76C99.13 31.76 97.8 30.61 97.8 28.56C97.8 26.51 99.13 25.41 100.6 25.41C102.1 25.41 103.41 26.54 103.41 28.58ZM110.19 35L114.13 35L114.13 22.17L110.19 22.17ZM112.17 20.83C113.55 20.83 114.49 19.89 114.49 18.72C114.49 17.52 113.55 16.58 112.17 16.58C110.77 16.58 109.83 17.52 109.83 18.72C109.83 19.89 110.77 20.83 112.17 20.83ZM125.83 35L129.74 35L129.74 27.5C129.74 24.05 127.77 22.03 124.8 22.03C123.07 22.03 121.69 22.79 120.91 23.87L120.91 22.17L116.98 22.17L116.98 35L120.91 35L120.91 28.03C120.91 26.28 121.88 25.32 123.37 25.32C124.87 25.32 125.83 26.28 125.83 28.03ZM131.7 28.56C131.7 32.61 134.21 35.18 137.36 35.18C139.24 35.18 140.6 34.29 141.31 33.16L141.31 34.98C141.31 37.14 140.14 37.92 138.64 37.92C137.29 37.92 136.32 37.3 136.07 36.33L132.18 36.33C132.53 39.39 135.01 41.33 138.83 41.33C143.27 41.33 145.25 38.4 145.25 34.98L145.25 22.17L141.31 22.17L141.31 23.98C140.62 22.83 139.24 21.98 137.36 21.98C134.21 21.98 131.7 24.51 131.7 28.56ZM141.31 28.58C141.31 30.63 140 31.76 138.51 31.76C137.03 31.76 135.7 30.61 135.7 28.56C135.7 26.51 137.03 25.41 138.51 25.41C140 25.41 141.31 26.54 141.31 28.58ZM163.48 18.85L163.48 28.86L156.91 18.85L152.97 18.85L152.97 35L156.91 35L156.91 25.04L163.48 35L167.42 35L167.42 18.85ZM170.27 35L174.2 35L174.2 22.17L170.27 22.17ZM172.25 20.83C173.63 20.83 174.57 19.89 174.57 18.72C174.57 17.52 173.63 16.58 172.25 16.58C170.84 16.58 169.9 17.52 169.9 18.72C169.9 19.89 170.84 20.83 172.25 20.83ZM185.91 35L189.82 35L189.82 27.5C189.82 24.05 187.84 22.03 184.88 22.03C183.15 22.03 181.77 22.79 180.99 23.87L180.99 22.17L177.06 22.17L177.06 35L180.99 35L180.99 28.03C180.99 26.28 181.95 25.32 183.45 25.32C184.94 25.32 185.91 26.28 185.91 28.03ZM194.51 20.83C195.89 20.83 196.83 19.89 196.83 18.72C196.83 17.52 195.89 16.58 194.51 16.58C193.11 16.58 192.17 17.52 192.17 18.72C192.17 19.89 193.11 20.83 194.51 20.83ZM192.56 22.17L192.56 36.7C192.56 37.46 192.23 37.78 191.36 37.78L190.42 37.78L190.42 41.12L191.96 41.12C194.63 41.12 196.49 39.99 196.49 36.66L196.49 22.17ZM198.54 28.56C198.54 32.61 201.04 35.18 204.17 35.18C206.08 35.18 207.44 34.31 208.15 33.18L208.15 35L212.08 35L212.08 22.17L208.15 22.17L208.15 23.98C207.46 22.86 206.1 21.98 204.19 21.98C201.04 21.98 198.54 24.51 198.54 28.56ZM208.15 28.58C208.15 30.63 206.84 31.76 205.34 31.76C203.87 31.76 202.54 30.61 202.54 28.56C202.54 26.51 203.87 25.41 205.34 25.41C206.84 25.41 208.15 26.54 208.15 28.58ZM225.35 31.27C225.29 26.49 218.34 27.94 218.34 25.89C218.34 25.27 218.85 24.9 219.77 24.9C220.87 24.9 221.54 25.48 221.65 26.35L225.29 26.35C225.03 23.82 223.19 21.98 219.88 21.98C216.52 21.98 214.66 23.78 214.66 25.96C214.66 30.68 221.65 29.18 221.65 31.25C221.65 31.83 221.12 32.29 220.11 32.29C219.03 32.29 218.22 31.69 218.13 30.79L214.25 30.79C214.43 33.27 216.73 35.18 220.16 35.18C223.38 35.18 225.35 33.51 225.35 31.27Z" />
				<path id="Offers" fill="#353263" aria-label="Offers"  d="M249.6 26.88C249.6 22.03 245.94 18.62 241.34 18.62C236.76 18.62 233.04 22.03 233.04 26.88C233.04 31.73 236.76 35.16 241.34 35.16C245.92 35.16 249.6 31.73 249.6 26.88ZM237.06 26.88C237.06 24.01 238.72 22.19 241.34 22.19C243.92 22.19 245.59 24.01 245.59 26.88C245.59 29.71 243.92 31.57 241.34 31.57C238.72 31.57 237.06 29.71 237.06 26.88ZM248.99 26.88C248.99 22.03 245.33 18.62 240.73 18.62C236.16 18.62 232.43 22.03 232.43 26.88C232.43 31.73 236.16 35.16 240.73 35.16C245.31 35.16 248.99 31.73 248.99 26.88ZM236.45 26.88C236.45 24.01 238.11 22.19 240.73 22.19C243.31 22.19 244.99 24.01 244.99 26.88C244.99 29.71 243.31 31.57 240.73 31.57C238.11 31.57 236.45 29.71 236.45 26.88ZM252.79 35L256.73 35L256.73 25.43L258.84 25.43L258.84 22.17L256.73 22.17L256.73 22.05C256.73 20.69 257.26 20.23 258.77 20.33L258.77 16.99C254.86 16.78 252.79 18.44 252.79 21.8L252.79 22.17L251.37 22.17L251.37 25.43L252.79 25.43ZM252.19 35L256.12 35L256.12 25.43L258.24 25.43L258.24 22.17L256.12 22.17L256.12 22.05C256.12 20.69 256.65 20.23 258.17 20.33L258.17 16.99C254.26 16.78 252.19 18.44 252.19 21.8L252.19 22.17L250.76 22.17L250.76 25.43L252.19 25.43ZM261.69 35L265.63 35L265.63 25.43L267.74 25.43L267.74 22.17L265.63 22.17L265.63 22.05C265.63 20.69 266.16 20.23 267.67 20.33L267.67 16.99C263.76 16.78 261.69 18.44 261.69 21.8L261.69 22.17L260.27 22.17L260.27 25.43L261.69 25.43ZM261.09 35L265.02 35L265.02 25.43L267.14 25.43L267.14 22.17L265.02 22.17L265.02 22.05C265.02 20.69 265.55 20.23 267.07 20.33L267.07 16.99C263.16 16.78 261.09 18.44 261.09 21.8L261.09 22.17L259.66 22.17L259.66 25.43L261.09 25.43ZM275.86 25.13C277.17 25.13 278.28 25.94 278.28 27.34L273.36 27.34C273.59 25.91 274.57 25.13 275.86 25.13ZM282 30.75L277.82 30.75C277.5 31.44 276.87 31.99 275.77 31.99C274.51 31.99 273.47 31.2 273.33 29.53L282.23 29.53C282.28 29.13 282.3 28.74 282.3 28.38C282.3 24.47 279.66 21.98 275.91 21.98C272.09 21.98 269.42 24.51 269.42 28.58C269.42 32.65 272.14 35.18 275.91 35.18C279.11 35.18 281.38 33.25 282 30.75ZM275.26 25.13C276.57 25.13 277.67 25.94 277.67 27.34L272.75 27.34C272.98 25.91 273.97 25.13 275.26 25.13ZM281.4 30.75L277.21 30.75C276.89 31.44 276.27 31.99 275.16 31.99C273.9 31.99 272.86 31.2 272.73 29.53L281.63 29.53C281.67 29.13 281.7 28.74 281.7 28.38C281.7 24.47 279.05 21.98 275.3 21.98C271.48 21.98 268.82 24.51 268.82 28.58C268.82 32.65 271.53 35.18 275.3 35.18C278.5 35.18 280.78 33.25 281.4 30.75ZM288.93 29.04C288.93 26.84 290.01 26.19 291.87 26.19L292.95 26.19L292.95 22.03C291.23 22.03 289.82 22.95 288.93 24.3L288.93 22.17L284.99 22.17L284.99 35L288.93 35ZM288.32 29.04C288.32 26.84 289.4 26.19 291.26 26.19L292.34 26.19L292.34 22.03C290.62 22.03 289.22 22.95 288.32 24.3L288.32 22.17L284.39 22.17L284.39 35L288.32 35ZM305.88 31.27C305.81 26.49 298.86 27.94 298.86 25.89C298.86 25.27 299.37 24.9 300.29 24.9C301.39 24.9 302.06 25.48 302.17 26.35L305.81 26.35C305.56 23.82 303.72 21.98 300.4 21.98C297.05 21.98 295.18 23.78 295.18 25.96C295.18 30.68 302.17 29.18 302.17 31.25C302.17 31.83 301.65 32.29 300.63 32.29C299.55 32.29 298.75 31.69 298.66 30.79L294.77 30.79C294.95 33.27 297.25 35.18 300.68 35.18C303.9 35.18 305.88 33.51 305.88 31.27ZM305.27 31.27C305.2 26.49 298.26 27.94 298.26 25.89C298.26 25.27 298.76 24.9 299.68 24.9C300.79 24.9 301.45 25.48 301.57 26.35L305.2 26.35C304.95 23.82 303.11 21.98 299.8 21.98C296.44 21.98 294.58 23.78 294.58 25.96C294.58 30.68 301.57 29.18 301.57 31.25C301.57 31.83 301.04 32.29 300.03 32.29C298.95 32.29 298.14 31.69 298.05 30.79L294.16 30.79C294.35 33.27 296.65 35.18 300.07 35.18C303.29 35.18 305.27 33.51 305.27 31.27Z" />
			</g>
		</g>
	</g>
</svg>